# WaveFront *.obj file (generated by Autodesk ATF)

mtllib ElevatorBody.mtl

g ElevatorBody

v 1187.000000 -1100.000000 2979.000000
v 1187.292177 -1097.687184 2979.000000
v 1188.150348 -1095.519691 2979.000000
v 1189.520592 -1093.633712 2979.000000
v 1191.316811 -1092.147750 2979.000000
v 1193.426142 -1091.155174 2979.000000
v 1195.716048 -1090.718351 2979.000000
v 1198.042646 -1090.864729 2979.000000
v 1200.259747 -1091.585108 2979.000000
v 1202.228043 -1092.834227 2979.000000
v 1203.823858 -1094.533597 2979.000000
v 1204.946921 -1096.576442 2979.000000
v 1205.526667 -1098.834401 2979.000000
v 1205.526667 -1101.165599 2979.000000
v 1204.946921 -1103.423558 2979.000000
v 1203.823858 -1105.466403 2979.000000
v 1202.228043 -1107.165773 2979.000000
v 1200.259747 -1108.414892 2979.000000
v 1198.042646 -1109.135271 2979.000000
v 1195.716048 -1109.281649 2979.000000
v 1193.426142 -1108.844826 2979.000000
v 1191.316811 -1107.852250 2979.000000
v 1189.520592 -1106.366288 2979.000000
v 1188.150348 -1104.480309 2979.000000
v 1187.292177 -1102.312816 2979.000000
v 1187.000000 -1100.000000 2982.000000
v 1187.292177 -1102.312816 2982.000000
v 1188.150348 -1104.480309 2982.000000
v 1189.520592 -1106.366288 2982.000000
v 1191.316811 -1107.852250 2982.000000
v 1193.426142 -1108.844826 2982.000000
v 1195.716048 -1109.281649 2982.000000
v 1198.042646 -1109.135271 2982.000000
v 1200.259747 -1108.414892 2982.000000
v 1202.228043 -1107.165773 2982.000000
v 1203.823858 -1105.466403 2982.000000
v 1204.946921 -1103.423558 2982.000000
v 1205.526667 -1101.165599 2982.000000
v 1205.526667 -1098.834401 2982.000000
v 1204.946921 -1096.576442 2982.000000
v 1203.823858 -1094.533597 2982.000000
v 1202.228043 -1092.834227 2982.000000
v 1200.259747 -1091.585108 2982.000000
v 1198.042646 -1090.864729 2982.000000
v 1195.716048 -1090.718351 2982.000000
v 1193.426142 -1091.155174 2982.000000
v 1191.316811 -1092.147750 2982.000000
v 1189.520592 -1093.633712 2982.000000
v 1188.150348 -1095.519691 2982.000000
v 1187.292177 -1097.687184 2982.000000
v 1181.300000 -1100.000000 2979.000000
v 1181.607051 -1103.019478 2979.000000
v 1182.515633 -1105.915338 2979.000000
v 1183.988548 -1108.569023 2979.000000
v 1185.965496 -1110.871892 2979.000000
v 1188.365540 -1112.729664 2979.000000
v 1191.090421 -1114.066282 2979.000000
v 1194.028583 -1114.827025 2979.000000
v 1197.059738 -1114.980748 2979.000000
v 1200.059788 -1114.521157 2979.000000
v 1202.905912 -1113.467068 2979.000000
v 1205.481590 -1111.861636 2979.000000
v 1207.681372 -1109.770587 2979.000000
v 1209.415199 -1107.279529 2979.000000
v 1210.612089 -1104.490447 2979.000000
v 1211.223040 -1101.517525 2979.000000
v 1211.223040 -1098.482475 2979.000000
v 1210.612089 -1095.509553 2979.000000
v 1209.415199 -1092.720471 2979.000000
v 1207.681372 -1090.229413 2979.000000
v 1205.481590 -1088.138364 2979.000000
v 1202.905912 -1086.532932 2979.000000
v 1200.059788 -1085.478843 2979.000000
v 1197.059738 -1085.019252 2979.000000
v 1194.028583 -1085.172975 2979.000000
v 1191.090421 -1085.933718 2979.000000
v 1188.365540 -1087.270336 2979.000000
v 1185.965496 -1089.128108 2979.000000
v 1183.988548 -1091.430977 2979.000000
v 1182.515633 -1094.084662 2979.000000
v 1181.607051 -1096.980522 2979.000000
v 1181.300000 -1100.000000 2982.000000
v 1181.607051 -1096.980522 2982.000000
v 1182.515633 -1094.084662 2982.000000
v 1183.988548 -1091.430977 2982.000000
v 1185.965496 -1089.128108 2982.000000
v 1188.365540 -1087.270336 2982.000000
v 1191.090421 -1085.933718 2982.000000
v 1194.028583 -1085.172975 2982.000000
v 1197.059738 -1085.019252 2982.000000
v 1200.059788 -1085.478843 2982.000000
v 1202.905912 -1086.532932 2982.000000
v 1205.481590 -1088.138364 2982.000000
v 1207.681372 -1090.229413 2982.000000
v 1209.415199 -1092.720471 2982.000000
v 1210.612089 -1095.509553 2982.000000
v 1211.223040 -1098.482475 2982.000000
v 1211.223040 -1101.517525 2982.000000
v 1210.612089 -1104.490447 2982.000000
v 1209.415199 -1107.279529 2982.000000
v 1207.681372 -1109.770587 2982.000000
v 1205.481590 -1111.861636 2982.000000
v 1202.905912 -1113.467068 2982.000000
v 1200.059788 -1114.521157 2982.000000
v 1197.059738 -1114.980748 2982.000000
v 1194.028583 -1114.827025 2982.000000
v 1191.090421 -1114.066282 2982.000000
v 1188.365540 -1112.729664 2982.000000
v 1185.965496 -1110.871892 2982.000000
v 1183.988548 -1108.569023 2982.000000
v 1182.515633 -1105.915338 2982.000000
v 1181.607051 -1103.019478 2982.000000
v 1321.300000 -1225.000000 2982.000000
v 1071.300000 -1225.000000 2982.000000
v 1071.300000 -975.000000 2982.000000
v 1321.300000 -975.000000 2982.000000
v 1118.300000 -1250.000000 2912.000000
v 1274.300000 -1250.000000 2912.000000
v 1274.300000 -1250.000000 2682.000000
v 1118.300000 -1250.000000 2682.000000
v 1326.300000 -1250.000000 2677.000000
v 1326.300000 -1250.000000 2987.000000
v 1066.300000 -1250.000000 2987.000000
v 1066.300000 -1250.000000 2677.000000
v 1274.300000 -1225.000000 2682.000000
v 1274.300000 -1225.000000 2912.000000
v 1118.300000 -1225.000000 2912.000000
v 1118.300000 -1225.000000 2682.000000
v 1071.300000 -1225.000000 2682.000000
v 1321.300000 -1225.000000 2682.000000
v 1321.300000 -975.000000 2682.000000
v 1071.300000 -975.000000 2682.000000
v 1066.300000 -970.000000 2677.000000
v 1326.300000 -970.000000 2677.000000
v 1066.300000 -970.000000 2987.000000
v 1326.300000 -970.000000 2987.000000
vt 0.300000 -2.687947 0.000000
vt -0.000000 -2.687947 0.000000
vt 0.300000 -2.921681 0.000000
vt 0.000000 -2.921681 0.000000
vt 0.300000 2.921681 0.000000
vt 0.000000 2.921681 0.000000
vt 0.300000 2.687947 0.000000
vt -0.000000 2.687947 0.000000
vt 0.300000 2.454212 0.000000
vt -0.000000 2.454212 0.000000
vt 0.300000 2.220478 0.000000
vt -0.000000 2.220478 0.000000
vt 0.300000 1.986743 0.000000
vt -0.000000 1.986743 0.000000
vt 0.300000 1.753009 0.000000
vt -0.000000 1.753009 0.000000
vt 0.300000 1.519274 0.000000
vt -0.000000 1.519274 0.000000
vt 0.300000 1.285540 0.000000
vt -0.000000 1.285540 0.000000
vt 0.300000 1.051805 0.000000
vt 0.000000 1.051805 0.000000
vt 0.300000 0.818071 0.000000
vt 0.000000 0.818071 0.000000
vt 0.300000 0.584336 0.000000
vt -0.000000 0.584336 0.000000
vt 0.300000 0.350602 0.000000
vt 0.000000 0.350602 0.000000
vt 0.300000 0.116867 0.000000
vt 0.000000 0.116867 0.000000
vt 0.300000 -0.116867 0.000000
vt 0.000000 -0.116867 0.000000
vt 0.300000 -0.350602 0.000000
vt 0.000000 -0.350602 0.000000
vt 0.300000 -0.584336 0.000000
vt -0.000000 -0.584336 0.000000
vt 0.300000 -0.818071 0.000000
vt 0.000000 -0.818071 0.000000
vt 0.300000 -1.051805 0.000000
vt 0.000000 -1.051805 0.000000
vt 0.300000 -1.285540 0.000000
vt -0.000000 -1.285540 0.000000
vt 0.300000 -1.519274 0.000000
vt 0.000000 -1.519274 0.000000
vt 0.300000 -1.753009 0.000000
vt -0.000000 -1.753009 0.000000
vt 0.300000 -1.986743 0.000000
vt -0.000000 -1.986743 0.000000
vt 0.300000 -2.220478 0.000000
vt 0.000000 -2.220478 0.000000
vt 0.300000 -2.454212 0.000000
vt 0.000000 -2.454212 0.000000
vt -0.300000 4.408364 0.000000
vt -0.000000 4.408364 0.000000
vt -0.300000 4.712389 0.000000
vt -0.000000 4.712389 0.000000
vt -0.300000 -4.712389 0.000000
vt -0.000000 -4.712389 0.000000
vt -0.300000 -4.408364 0.000000
vt -0.000000 -4.408364 0.000000
vt -0.300000 -4.104339 0.000000
vt -0.000000 -4.104339 0.000000
vt -0.300000 -3.800314 0.000000
vt -0.000000 -3.800314 0.000000
vt -0.300000 -3.496289 0.000000
vt -0.000000 -3.496289 0.000000
vt -0.300000 -3.192264 0.000000
vt -0.000000 -3.192264 0.000000
vt -0.300000 -2.888238 0.000000
vt -0.000000 -2.888238 0.000000
vt -0.300000 -2.584213 0.000000
vt -0.000000 -2.584213 0.000000
vt -0.300000 -2.280188 0.000000
vt -0.000000 -2.280188 0.000000
vt -0.300000 -1.976163 0.000000
vt -0.000000 -1.976163 0.000000
vt -0.300000 -1.672138 0.000000
vt -0.000000 -1.672138 0.000000
vt -0.300000 -1.368113 0.000000
vt -0.000000 -1.368113 0.000000
vt -0.300000 -1.064088 0.000000
vt -0.000000 -1.064088 0.000000
vt -0.300000 -0.760063 0.000000
vt -0.000000 -0.760063 0.000000
vt -0.300000 -0.456038 0.000000
vt -0.000000 -0.456038 0.000000
vt -0.300000 -0.152013 0.000000
vt -0.000000 -0.152013 0.000000
vt -0.300000 0.152013 0.000000
vt -0.000000 0.152013 0.000000
vt -0.300000 0.456038 0.000000
vt -0.000000 0.456038 0.000000
vt -0.300000 0.760063 0.000000
vt -0.000000 0.760063 0.000000
vt -0.300000 1.064088 0.000000
vt -0.000000 1.064088 0.000000
vt -0.300000 1.368113 0.000000
vt -0.000000 1.368113 0.000000
vt -0.300000 1.672138 0.000000
vt -0.000000 1.672138 0.000000
vt -0.300000 1.976163 0.000000
vt -0.000000 1.976163 0.000000
vt -0.300000 2.280188 0.000000
vt -0.000000 2.280188 0.000000
vt -0.300000 2.584213 0.000000
vt -0.000000 2.584213 0.000000
vt -0.300000 2.888238 0.000000
vt 0.000000 2.888238 0.000000
vt -0.300000 3.192264 0.000000
vt -0.000000 3.192264 0.000000
vt -0.300000 3.496289 0.000000
vt 0.000000 3.496289 0.000000
vt -0.300000 3.800314 0.000000
vt 0.000000 3.800314 0.000000
vt -0.300000 4.104339 0.000000
vt -0.000000 4.104339 0.000000
vt -0.900782 0.231282 0.000000
vt -1.469295 0.301948 0.000000
vt -0.930000 0.000000 0.000000
vt -1.500000 0.000000 0.000000
vt -1.469295 -0.301948 0.000000
vt -1.378437 0.591534 0.000000
vt -0.814965 0.448031 0.000000
vt -1.231145 0.856902 0.000000
vt -0.677941 0.636629 0.000000
vt -1.033450 1.087189 0.000000
vt -0.498319 0.785225 0.000000
vt -0.793446 1.272966 0.000000
vt -0.520958 1.406628 0.000000
vt -0.287386 0.884483 0.000000
vt -0.227142 1.482702 0.000000
vt -0.058395 0.928165 0.000000
vt 0.075974 1.498075 0.000000
vt 0.174265 0.913527 0.000000
vt 0.375979 1.452116 0.000000
vt 0.395975 0.841489 0.000000
vt 0.660591 1.346707 0.000000
vt 0.918159 1.186164 0.000000
vt 0.592804 0.716577 0.000000
vt 1.138137 0.977059 0.000000
vt 0.752386 0.546640 0.000000
vt 1.311520 0.727953 0.000000
vt 0.864692 0.342356 0.000000
vt 1.431209 0.449045 0.000000
vt 0.922667 0.116560 0.000000
vt 1.492304 0.151752 0.000000
vt 1.492304 -0.151752 0.000000
vt 0.922667 -0.116560 0.000000
vt 1.431209 -0.449045 0.000000
vt 0.864692 -0.342356 0.000000
vt 1.311520 -0.727953 0.000000
vt 0.752386 -0.546640 0.000000
vt 1.138137 -0.977059 0.000000
vt 0.592804 -0.716577 0.000000
vt 0.918159 -1.186164 0.000000
vt 0.395975 -0.841489 0.000000
vt 0.660591 -1.346707 0.000000
vt 0.375979 -1.452116 0.000000
vt 0.174265 -0.913527 0.000000
vt 0.075974 -1.498075 0.000000
vt -0.058395 -0.928165 0.000000
vt -0.227142 -1.482702 0.000000
vt -0.287386 -0.884483 0.000000
vt -0.520958 -1.406628 0.000000
vt -0.498319 -0.785225 0.000000
vt -0.793446 -1.272966 0.000000
vt -1.033450 -1.087189 0.000000
vt -0.677941 -0.636629 0.000000
vt -1.231145 -0.856902 0.000000
vt -0.814965 -0.448031 0.000000
vt -1.378437 -0.591534 0.000000
vt -0.900782 -0.231282 0.000000
vt 12.500000 -12.500000 0.000000
vt -0.075974 -1.498075 0.000000
vt -12.500000 -12.500000 0.000000
vt -0.375979 -1.452116 0.000000
vt -0.660591 -1.346707 0.000000
vt 12.500000 12.500000 0.000000
vt 1.500000 0.000000 0.000000
vt 1.469295 -0.301948 0.000000
vt 1.378437 -0.591534 0.000000
vt -12.500000 12.500000 0.000000
vt -0.075974 1.498075 0.000000
vt 0.227142 1.482702 0.000000
vt 0.520958 1.406628 0.000000
vt -1.492304 0.151752 0.000000
vt -1.431209 0.449045 0.000000
vt -1.311520 0.727953 0.000000
vt 1.231145 -0.856902 0.000000
vt 1.033450 -1.087189 0.000000
vt 0.793446 -1.272966 0.000000
vt 0.520958 -1.406628 0.000000
vt 0.227142 -1.482702 0.000000
vt -0.918159 -1.186164 0.000000
vt -1.138137 -0.977059 0.000000
vt -1.311520 -0.727953 0.000000
vt -1.431209 -0.449045 0.000000
vt -1.492304 -0.151752 0.000000
vt -1.138137 0.977059 0.000000
vt -0.918159 1.186164 0.000000
vt -0.660591 1.346707 0.000000
vt -0.375979 1.452116 0.000000
vt 0.793446 1.272966 0.000000
vt 1.033450 1.087189 0.000000
vt 1.231145 0.856902 0.000000
vt 1.378437 0.591534 0.000000
vt 1.469295 0.301948 0.000000
vt 7.000000 20.800000 0.000000
vt -0.500000 0.000000 0.000000
vt 7.000000 5.200000 0.000000
vt 30.500000 0.000000 0.000000
vt 30.000000 5.200000 0.000000
vt 30.000000 20.800000 0.000000
vt 30.500000 26.000000 0.000000
vt -0.500000 26.000000 0.000000
vt 0.900782 -0.231282 0.000000
vt 0.930000 0.000000 0.000000
vt -0.395975 -0.841489 0.000000
vt 0.900782 0.231282 0.000000
vt 0.814965 0.448031 0.000000
vt 0.677941 0.636629 0.000000
vt 0.498319 0.785225 0.000000
vt 0.287386 0.884483 0.000000
vt 0.058395 0.928165 0.000000
vt -0.174265 0.913527 0.000000
vt -0.395975 0.841489 0.000000
vt -0.592804 -0.716577 0.000000
vt -0.592804 0.716577 0.000000
vt -0.752386 -0.546640 0.000000
vt -0.752386 0.546640 0.000000
vt -0.864692 -0.342356 0.000000
vt -0.864692 0.342356 0.000000
vt -0.922667 -0.116560 0.000000
vt -0.922667 0.116560 0.000000
vt -0.174265 -0.913527 0.000000
vt 0.287386 -0.884483 0.000000
vt 0.498319 -0.785225 0.000000
vt 0.677941 -0.636629 0.000000
vt 0.058395 -0.928165 0.000000
vt 0.814965 -0.448031 0.000000
vt -20.300000 0.000000 0.000000
vt -20.300000 23.000000 0.000000
vt -25.000000 0.000000 0.000000
vt -25.000000 30.000000 0.000000
vt -4.700000 23.000000 0.000000
vt -0.000000 30.000000 0.000000
vt -0.000000 0.000000 0.000000
vt -4.700000 0.000000 0.000000
vt -25.000000 0.000000 0.000000
vt -0.000000 0.000000 0.000000
vt -25.000000 30.000000 0.000000
vt -0.000000 30.000000 0.000000
vt -25.000000 0.000000 0.000000
vt 0.000000 0.000000 0.000000
vt -25.000000 30.000000 0.000000
vt 0.000000 30.000000 0.000000
vt -25.000000 0.000000 0.000000
vt 0.000000 0.000000 0.000000
vt -25.000000 30.000000 0.000000
vt 0.000000 30.000000 0.000000
vt -23.000000 0.000000 0.000000
vt -0.000000 0.000000 0.000000
vt -23.000000 2.500000 0.000000
vt -0.000000 2.500000 0.000000
vt -15.600000 0.000000 0.000000
vt -0.000000 0.000000 0.000000
vt -15.600000 2.500000 0.000000
vt -0.000000 2.500000 0.000000
vt -23.000000 0.000000 0.000000
vt -0.000000 0.000000 0.000000
vt -23.000000 2.500000 0.000000
vt -0.000000 2.500000 0.000000
vt -7.800000 -15.000000 0.000000
vt 7.800000 -15.000000 0.000000
vt -7.800000 -12.500000 0.000000
vt 7.800000 -12.500000 0.000000
vt -12.500000 12.500000 0.000000
vt 12.500000 12.500000 0.000000
vt 12.500000 -12.500000 0.000000
vt -12.500000 -12.500000 0.000000
vt 13.000000 13.000000 0.000000
vt -13.000000 13.000000 0.000000
vt 13.000000 -15.000000 0.000000
vt -13.000000 -15.000000 0.000000
vt 28.000000 0.500000 0.000000
vt -0.000000 0.500000 0.000000
vt 28.000000 -30.500000 0.000000
vt 0.000000 -30.500000 0.000000
vt 26.000000 0.500000 0.000000
vt -0.000000 0.500000 0.000000
vt 26.000000 -30.500000 0.000000
vt 0.000000 -30.500000 0.000000
vt 26.000000 0.500000 0.000000
vt -2.000000 0.500000 0.000000
vt 26.000000 -30.500000 0.000000
vt -2.000000 -30.500000 0.000000
vt 13.000000 13.000000 0.000000
vt -13.000000 13.000000 0.000000
vt 13.000000 -15.000000 0.000000
vt -13.000000 -15.000000 0.000000
vn 0.096858 -0.024869 0.000000
vn 0.096858 -0.024869 0.000000
vn 0.100000 -0.000000 0.000000
vn 0.100000 -0.000000 0.000000
vn 0.096858 0.024869 0.000000
vn 0.096858 0.024869 0.000000
vn 0.087631 0.048175 0.000000
vn 0.087631 0.048175 0.000000
vn 0.072897 0.068455 0.000000
vn 0.072897 0.068455 0.000000
vn 0.053583 0.084433 0.000000
vn 0.053583 0.084433 0.000000
vn 0.030902 0.095106 0.000000
vn 0.030902 0.095106 0.000000
vn 0.006279 0.099803 0.000000
vn 0.006279 0.099803 0.000000
vn -0.018738 0.098229 0.000000
vn -0.018738 0.098229 0.000000
vn -0.042578 0.090483 0.000000
vn -0.042578 0.090483 0.000000
vn -0.063742 0.077051 0.000000
vn -0.063742 0.077051 0.000000
vn -0.080902 0.058779 0.000000
vn -0.080902 0.058779 0.000000
vn -0.092978 0.036812 0.000000
vn -0.092978 0.036812 0.000000
vn -0.099211 0.012533 0.000000
vn -0.099211 0.012533 0.000000
vn -0.099211 -0.012533 0.000000
vn -0.099211 -0.012533 0.000000
vn -0.092978 -0.036812 0.000000
vn -0.092978 -0.036812 0.000000
vn -0.080902 -0.058779 0.000000
vn -0.080902 -0.058779 0.000000
vn -0.063742 -0.077051 0.000000
vn -0.063742 -0.077051 0.000000
vn -0.042578 -0.090483 0.000000
vn -0.042578 -0.090483 0.000000
vn -0.018738 -0.098229 0.000000
vn -0.018738 -0.098229 0.000000
vn 0.006279 -0.099803 0.000000
vn 0.006279 -0.099803 0.000000
vn 0.030902 -0.095106 0.000000
vn 0.030902 -0.095106 0.000000
vn 0.053583 -0.084433 0.000000
vn 0.053583 -0.084433 0.000000
vn 0.072897 -0.068455 0.000000
vn 0.072897 -0.068455 0.000000
vn 0.087631 -0.048175 0.000000
vn 0.087631 -0.048175 0.000000
vn -0.097953 -0.020130 0.000000
vn -0.097953 -0.020130 0.000000
vn -0.100000 -0.000000 0.000000
vn -0.100000 -0.000000 0.000000
vn -0.097953 0.020130 -0.000000
vn -0.097953 0.020130 -0.000000
vn -0.091896 0.039436 -0.000000
vn -0.091896 0.039436 -0.000000
vn -0.082076 0.057127 -0.000000
vn -0.082076 0.057127 -0.000000
vn -0.068897 0.072479 -0.000000
vn -0.068897 0.072479 -0.000000
vn -0.052896 0.084864 -0.000000
vn -0.052896 0.084864 -0.000000
vn -0.034731 0.093775 -0.000000
vn -0.034731 0.093775 -0.000000
vn -0.015143 0.098847 -0.000000
vn -0.015143 0.098847 -0.000000
vn 0.005065 0.099872 0.000000
vn 0.005065 0.099872 0.000000
vn 0.025065 0.096808 0.000000
vn 0.025065 0.096808 0.000000
vn 0.044039 0.089780 0.000000
vn 0.044039 0.089780 0.000000
vn 0.061211 0.079078 0.000000
vn 0.061211 0.079078 0.000000
vn 0.075876 0.065137 0.000000
vn 0.075876 0.065137 0.000000
vn 0.087435 0.048530 0.000000
vn 0.087435 0.048530 0.000000
vn 0.095414 0.029936 0.000000
vn 0.095414 0.029936 0.000000
vn 0.099487 0.010117 0.000000
vn 0.099487 0.010117 0.000000
vn 0.099487 -0.010117 0.000000
vn 0.099487 -0.010117 0.000000
vn 0.095414 -0.029936 0.000000
vn 0.095414 -0.029936 0.000000
vn 0.087435 -0.048530 0.000000
vn 0.087435 -0.048530 0.000000
vn 0.075876 -0.065137 0.000000
vn 0.075876 -0.065137 0.000000
vn 0.061211 -0.079078 0.000000
vn 0.061211 -0.079078 0.000000
vn 0.044039 -0.089780 0.000000
vn 0.044039 -0.089780 0.000000
vn 0.025065 -0.096808 0.000000
vn 0.025065 -0.096808 0.000000
vn 0.005065 -0.099872 0.000000
vn 0.005065 -0.099872 0.000000
vn -0.015143 -0.098847 0.000000
vn -0.015143 -0.098847 0.000000
vn -0.034731 -0.093775 0.000000
vn -0.034731 -0.093775 0.000000
vn -0.052896 -0.084864 0.000000
vn -0.052896 -0.084864 0.000000
vn -0.068897 -0.072479 0.000000
vn -0.068897 -0.072479 0.000000
vn -0.082076 -0.057127 0.000000
vn -0.082076 -0.057127 0.000000
vn -0.091896 -0.039436 0.000000
vn -0.091896 -0.039436 0.000000
vn 0.000000 0.000000 -0.100000
vn 0.000000 0.000000 -0.100000
vn 0.000000 0.000000 -0.100000
vn 0.000000 0.000000 -0.100000
vn 0.000000 0.000000 -0.100000
vn 0.000000 0.000000 -0.100000
vn 0.000000 0.000000 -0.100000
vn 0.000000 0.000000 -0.100000
vn 0.000000 0.000000 -0.100000
vn 0.000000 0.000000 -0.100000
vn 0.000000 0.000000 -0.100000
vn 0.000000 0.000000 -0.100000
vn 0.000000 0.000000 -0.100000
vn 0.000000 0.000000 -0.100000
vn 0.000000 0.000000 -0.100000
vn 0.000000 0.000000 -0.100000
vn 0.000000 0.000000 -0.100000
vn 0.000000 0.000000 -0.100000
vn 0.000000 0.000000 -0.100000
vn 0.000000 0.000000 -0.100000
vn 0.000000 0.000000 -0.100000
vn 0.000000 0.000000 -0.100000
vn 0.000000 0.000000 -0.100000
vn 0.000000 0.000000 -0.100000
vn 0.000000 0.000000 -0.100000
vn 0.000000 0.000000 -0.100000
vn 0.000000 0.000000 -0.100000
vn 0.000000 0.000000 -0.100000
vn 0.000000 0.000000 -0.100000
vn 0.000000 0.000000 -0.100000
vn 0.000000 0.000000 -0.100000
vn 0.000000 0.000000 -0.100000
vn 0.000000 0.000000 -0.100000
vn 0.000000 0.000000 -0.100000
vn 0.000000 0.000000 -0.100000
vn 0.000000 0.000000 -0.100000
vn 0.000000 0.000000 -0.100000
vn 0.000000 0.000000 -0.100000
vn 0.000000 0.000000 -0.100000
vn 0.000000 0.000000 -0.100000
vn 0.000000 0.000000 -0.100000
vn 0.000000 0.000000 -0.100000
vn 0.000000 0.000000 -0.100000
vn 0.000000 0.000000 -0.100000
vn 0.000000 0.000000 -0.100000
vn 0.000000 0.000000 -0.100000
vn 0.000000 0.000000 -0.100000
vn 0.000000 0.000000 -0.100000
vn 0.000000 0.000000 -0.100000
vn 0.000000 0.000000 -0.100000
vn 0.000000 0.000000 -0.100000
vn 0.000000 0.000000 -0.100000
vn 0.000000 0.000000 -0.100000
vn 0.000000 0.000000 -0.100000
vn 0.000000 0.000000 -0.100000
vn 0.000000 0.000000 -0.100000
vn 0.000000 0.000000 -0.100000
vn 0.000000 0.000000 -0.100000
vn 0.000000 0.000000 -0.100000
vn 0.000000 0.000000 -0.100000
vn 0.000000 0.000000 -0.100000
vn 0.000000 0.000000 -0.100000
vn 0.000000 0.000000 -0.100000
vn 0.000000 0.000000 -0.100000
vn 0.000000 0.000000 -0.100000
vn 0.000000 0.000000 -0.100000
vn 0.000000 0.000000 -0.100000
vn 0.000000 0.000000 -0.100000
vn 0.000000 0.000000 -0.100000
vn 0.000000 0.000000 -0.100000
vn 0.000000 0.000000 -0.100000
vn 0.000000 0.000000 -0.100000
vn 0.000000 0.000000 -0.100000
vn 0.000000 0.000000 -0.100000
vn 0.000000 0.000000 -0.100000
vn 0.000000 0.000000 -0.100000
vn 0.000000 0.000000 -0.100000
vn 0.000000 0.000000 -0.100000
vn 0.000000 0.000000 -0.100000
vn 0.000000 0.000000 -0.100000
vn 0.000000 0.000000 -0.100000
vn 0.000000 0.000000 -0.100000
vn 0.000000 0.000000 -0.100000
vn 0.000000 0.000000 -0.100000
vn 0.000000 0.000000 -0.100000
vn 0.000000 0.000000 -0.100000
vn 0.000000 0.000000 -0.100000
vn 0.000000 0.000000 -0.100000
vn 0.000000 0.000000 -0.100000
vn 0.000000 0.000000 -0.100000
vn 0.000000 0.000000 -0.100000
vn 0.000000 -0.100000 0.000000
vn 0.000000 -0.100000 0.000000
vn 0.000000 -0.100000 0.000000
vn 0.000000 -0.100000 0.000000
vn 0.000000 -0.100000 0.000000
vn 0.000000 -0.100000 0.000000
vn 0.000000 -0.100000 0.000000
vn 0.000000 -0.100000 0.000000
vn 0.000000 0.000000 -0.100000
vn 0.000000 0.000000 -0.100000
vn 0.000000 0.000000 -0.100000
vn 0.000000 0.000000 -0.100000
vn 0.000000 0.000000 -0.100000
vn 0.000000 0.000000 -0.100000
vn 0.000000 0.000000 -0.100000
vn 0.000000 0.000000 -0.100000
vn 0.000000 0.000000 -0.100000
vn 0.000000 0.000000 -0.100000
vn 0.000000 0.000000 -0.100000
vn 0.000000 0.000000 -0.100000
vn 0.000000 0.000000 -0.100000
vn 0.000000 0.000000 -0.100000
vn 0.000000 0.000000 -0.100000
vn 0.000000 0.000000 -0.100000
vn 0.000000 0.000000 -0.100000
vn 0.000000 0.000000 -0.100000
vn 0.000000 0.000000 -0.100000
vn 0.000000 0.000000 -0.100000
vn 0.000000 0.000000 -0.100000
vn 0.000000 0.000000 -0.100000
vn 0.000000 0.000000 -0.100000
vn 0.000000 0.000000 -0.100000
vn 0.000000 0.000000 -0.100000
vn -0.000000 0.100000 -0.000000
vn -0.000000 0.100000 -0.000000
vn -0.000000 0.100000 -0.000000
vn -0.000000 0.100000 -0.000000
vn -0.000000 0.100000 -0.000000
vn -0.000000 0.100000 -0.000000
vn -0.000000 0.100000 -0.000000
vn -0.000000 0.100000 -0.000000
vn -0.100000 0.000000 0.000000
vn -0.100000 0.000000 0.000000
vn -0.100000 0.000000 0.000000
vn -0.100000 0.000000 0.000000
vn 0.000000 -0.100000 0.000000
vn 0.000000 -0.100000 0.000000
vn 0.000000 -0.100000 0.000000
vn 0.000000 -0.100000 0.000000
vn 0.100000 0.000000 0.000000
vn 0.100000 0.000000 0.000000
vn 0.100000 0.000000 0.000000
vn 0.100000 0.000000 0.000000
vn -0.100000 0.000000 0.000000
vn -0.100000 0.000000 0.000000
vn -0.100000 0.000000 0.000000
vn -0.100000 0.000000 0.000000
vn 0.000000 0.000000 -0.100000
vn 0.000000 0.000000 -0.100000
vn 0.000000 0.000000 -0.100000
vn 0.000000 0.000000 -0.100000
vn 0.100000 0.000000 0.000000
vn 0.100000 0.000000 0.000000
vn 0.100000 0.000000 0.000000
vn 0.100000 0.000000 0.000000
vn 0.000000 0.000000 0.100000
vn 0.000000 0.000000 0.100000
vn 0.000000 0.000000 0.100000
vn 0.000000 0.000000 0.100000
vn 0.000000 0.000000 0.100000
vn 0.000000 0.000000 0.100000
vn 0.000000 0.000000 0.100000
vn 0.000000 0.000000 0.100000
vn 0.000000 0.000000 -0.100000
vn 0.000000 0.000000 -0.100000
vn 0.000000 0.000000 -0.100000
vn 0.000000 0.000000 -0.100000
vn -0.100000 0.000000 0.000000
vn -0.100000 0.000000 0.000000
vn -0.100000 0.000000 0.000000
vn -0.100000 0.000000 0.000000
vn 0.000000 0.100000 0.000000
vn 0.000000 0.100000 0.000000
vn 0.000000 0.100000 0.000000
vn 0.000000 0.100000 0.000000
vn 0.100000 0.000000 0.000000
vn 0.100000 0.000000 0.000000
vn 0.100000 0.000000 0.000000
vn 0.100000 0.000000 0.000000
vn 0.000000 0.000000 0.100000
vn 0.000000 0.000000 0.100000
vn 0.000000 0.000000 0.100000
vn 0.000000 0.000000 0.100000
usemtl Acero_-_Satinado
f 2/1/1 50/2/2 1/3/3
f 1/3/3 50/2/2 26/4/4
f 1/5/3 26/6/4 25/7/5
f 25/7/5 26/6/4 27/8/6
f 25/7/5 27/8/6 24/9/7
f 24/9/7 27/8/6 28/10/8
f 24/9/7 28/10/8 23/11/9
f 23/11/9 28/10/8 29/12/10
f 23/11/9 29/12/10 22/13/11
f 22/13/11 29/12/10 30/14/12
f 22/13/11 30/14/12 21/15/13
f 21/15/13 30/14/12 31/16/14
f 21/15/13 31/16/14 20/17/15
f 20/17/15 31/16/14 32/18/16
f 20/17/15 32/18/16 19/19/17
f 19/19/17 32/18/16 33/20/18
f 19/19/17 33/20/18 18/21/19
f 18/21/19 33/20/18 34/22/20
f 18/21/19 34/22/20 17/23/21
f 17/23/21 34/22/20 35/24/22
f 17/23/21 35/24/22 16/25/23
f 16/25/23 35/24/22 36/26/24
f 16/25/23 36/26/24 15/27/25
f 15/27/25 36/26/24 37/28/26
f 15/27/25 37/28/26 14/29/27
f 14/29/27 37/28/26 38/30/28
f 14/29/27 38/30/28 13/31/29
f 13/31/29 38/30/28 39/32/30
f 13/31/29 39/32/30 12/33/31
f 12/33/31 39/32/30 40/34/32
f 12/33/31 40/34/32 11/35/33
f 11/35/33 40/34/32 41/36/34
f 11/35/33 41/36/34 10/37/35
f 10/37/35 41/36/34 42/38/36
f 10/37/35 42/38/36 9/39/37
f 9/39/37 42/38/36 43/40/38
f 9/39/37 43/40/38 8/41/39
f 8/41/39 43/40/38 44/42/40
f 8/41/39 44/42/40 7/43/41
f 7/43/41 44/42/40 45/44/42
f 7/43/41 45/44/42 6/45/43
f 6/45/43 45/44/42 46/46/44
f 6/45/43 46/46/44 5/47/45
f 5/47/45 46/46/44 47/48/46
f 5/47/45 47/48/46 4/49/47
f 4/49/47 47/48/46 48/50/48
f 4/49/47 48/50/48 3/51/49
f 3/51/49 48/50/48 49/52/50
f 3/51/49 49/52/50 2/1/1
f 2/1/1 49/52/50 50/2/2
f 52/53/51 112/54/52 51/55/53
f 51/55/53 112/54/52 82/56/54
f 51/57/53 82/58/54 81/59/55
f 81/59/55 82/58/54 83/60/56
f 81/59/55 83/60/56 80/61/57
f 80/61/57 83/60/56 84/62/58
f 80/61/57 84/62/58 79/63/59
f 79/63/59 84/62/58 85/64/60
f 79/63/59 85/64/60 78/65/61
f 78/65/61 85/64/60 86/66/62
f 78/65/61 86/66/62 77/67/63
f 77/67/63 86/66/62 87/68/64
f 77/67/63 87/68/64 76/69/65
f 76/69/65 87/68/64 88/70/66
f 76/69/65 88/70/66 75/71/67
f 75/71/67 88/70/66 89/72/68
f 75/71/67 89/72/68 74/73/69
f 74/73/69 89/72/68 90/74/70
f 74/73/69 90/74/70 73/75/71
f 73/75/71 90/74/70 91/76/72
f 73/75/71 91/76/72 72/77/73
f 72/77/73 91/76/72 92/78/74
f 72/77/73 92/78/74 71/79/75
f 71/79/75 92/78/74 93/80/76
f 71/79/75 93/80/76 70/81/77
f 70/81/77 93/80/76 94/82/78
f 70/81/77 94/82/78 69/83/79
f 69/83/79 94/82/78 95/84/80
f 69/83/79 95/84/80 68/85/81
f 68/85/81 95/84/80 96/86/82
f 68/85/81 96/86/82 67/87/83
f 67/87/83 96/86/82 97/88/84
f 67/87/83 97/88/84 66/89/85
f 66/89/85 97/88/84 98/90/86
f 66/89/85 98/90/86 65/91/87
f 65/91/87 98/90/86 99/92/88
f 65/91/87 99/92/88 64/93/89
f 64/93/89 99/92/88 100/94/90
f 64/93/89 100/94/90 63/95/91
f 63/95/91 100/94/90 101/96/92
f 63/95/91 101/96/92 62/97/93
f 62/97/93 101/96/92 102/98/94
f 62/97/93 102/98/94 61/99/95
f 61/99/95 102/98/94 103/100/96
f 61/99/95 103/100/96 60/101/97
f 60/101/97 103/100/96 104/102/98
f 60/101/97 104/102/98 59/103/99
f 59/103/99 104/102/98 105/104/100
f 59/103/99 105/104/100 58/105/101
f 58/105/101 105/104/100 106/106/102
f 58/105/101 106/106/102 57/107/103
f 57/107/103 106/106/102 107/108/104
f 57/107/103 107/108/104 56/109/105
f 56/109/105 107/108/104 108/110/106
f 56/109/105 108/110/106 55/111/107
f 55/111/107 108/110/106 109/112/108
f 55/111/107 109/112/108 54/113/109
f 54/113/109 109/112/108 110/114/110
f 54/113/109 110/114/110 53/115/111
f 53/115/111 110/114/110 111/116/112
f 53/115/111 111/116/112 52/53/51
f 52/53/51 111/116/112 112/54/52
f 25/117/113 52/118/114 1/119/115
f 1/119/115 52/118/114 51/120/116
f 1/119/115 51/120/116 81/121/117
f 52/118/114 25/117/113 53/122/118
f 53/122/118 25/117/113 24/123/119
f 53/122/118 24/123/119 54/124/120
f 54/124/120 24/123/119 23/125/121
f 54/124/120 23/125/121 55/126/122
f 55/126/122 23/125/121 22/127/123
f 55/126/122 22/127/123 56/128/124
f 56/128/124 22/127/123 57/129/125
f 57/129/125 22/127/123 21/130/126
f 57/129/125 21/130/126 58/131/127
f 58/131/127 21/130/126 20/132/128
f 58/131/127 20/132/128 59/133/129
f 59/133/129 20/132/128 19/134/130
f 59/133/129 19/134/130 60/135/131
f 60/135/131 19/134/130 18/136/132
f 60/135/131 18/136/132 61/137/133
f 61/137/133 18/136/132 62/138/134
f 62/138/134 18/136/132 17/139/135
f 62/138/134 17/139/135 63/140/136
f 63/140/136 17/139/135 16/141/137
f 63/140/136 16/141/137 64/142/138
f 64/142/138 16/141/137 15/143/139
f 64/142/138 15/143/139 65/144/140
f 65/144/140 15/143/139 14/145/141
f 65/144/140 14/145/141 66/146/142
f 66/146/142 14/145/141 67/147/143
f 67/147/143 14/145/141 13/148/144
f 67/147/143 13/148/144 68/149/145
f 68/149/145 13/148/144 12/150/146
f 68/149/145 12/150/146 69/151/147
f 69/151/147 12/150/146 11/152/148
f 69/151/147 11/152/148 70/153/149
f 70/153/149 11/152/148 10/154/150
f 70/153/149 10/154/150 71/155/151
f 71/155/151 10/154/150 9/156/152
f 71/155/151 9/156/152 72/157/153
f 72/157/153 9/156/152 73/158/154
f 73/158/154 9/156/152 8/159/155
f 73/158/154 8/159/155 74/160/156
f 74/160/156 8/159/155 7/161/157
f 74/160/156 7/161/157 75/162/158
f 75/162/158 7/161/157 6/163/159
f 75/162/158 6/163/159 76/164/160
f 76/164/160 6/163/159 5/165/161
f 76/164/160 5/165/161 77/166/162
f 77/166/162 5/165/161 78/167/163
f 78/167/163 5/165/161 4/168/164
f 78/167/163 4/168/164 79/169/165
f 79/169/165 4/168/164 3/170/166
f 79/169/165 3/170/166 80/171/167
f 80/171/167 3/170/166 2/172/168
f 80/171/167 2/172/168 81/121/117
f 81/121/117 2/172/168 1/119/115
f 114/173/169 105/174/170 113/175/171
f 113/175/171 105/174/170 104/176/172
f 113/175/171 104/176/172 103/177/173
f 115/178/174 82/179/175 114/173/169
f 114/173/169 82/179/175 112/180/176
f 114/173/169 112/180/176 111/181/177
f 116/182/178 90/183/179 115/178/174
f 115/178/174 90/183/179 89/184/180
f 115/178/174 89/184/180 88/185/181
f 113/175/171 97/186/182 116/182/178
f 116/182/178 97/186/182 96/187/183
f 116/182/178 96/187/183 95/188/184
f 111/181/177 110/189/185 114/173/169
f 114/173/169 110/189/185 109/190/186
f 114/173/169 109/190/186 108/191/187
f 108/191/187 107/192/188 114/173/169
f 114/173/169 107/192/188 106/193/189
f 114/173/169 106/193/189 105/174/170
f 103/177/173 102/194/190 113/175/171
f 113/175/171 102/194/190 101/195/191
f 113/175/171 101/195/191 100/196/192
f 100/196/192 99/197/193 113/175/171
f 113/175/171 99/197/193 98/198/194
f 113/175/171 98/198/194 97/186/182
f 95/188/184 94/199/195 116/182/178
f 116/182/178 94/199/195 93/200/196
f 116/182/178 93/200/196 92/201/197
f 92/201/197 91/202/198 116/182/178
f 116/182/178 91/202/198 90/183/179
f 88/185/181 87/203/199 115/178/174
f 115/178/174 87/203/199 86/204/200
f 115/178/174 86/204/200 85/205/201
f 85/205/201 84/206/202 115/178/174
f 115/178/174 84/206/202 83/207/203
f 115/178/174 83/207/203 82/179/175
f 118/208/204 123/209/205 117/210/206
f 117/210/206 123/209/205 124/211/207
f 117/210/206 124/211/207 120/212/208
f 120/212/208 124/211/207 119/213/209
f 119/213/209 124/211/207 121/214/210
f 119/213/209 121/214/210 118/208/204
f 118/208/204 121/214/210 122/215/211
f 118/208/204 122/215/211 123/209/205
f 27/216/212 26/217/213 34/218/214
f 34/218/214 26/217/213 50/219/215
f 34/218/214 50/219/215 49/220/216
f 49/220/216 48/221/217 34/218/214
f 34/218/214 48/221/217 47/222/218
f 34/218/214 47/222/218 46/223/219
f 46/223/219 45/224/220 34/218/214
f 34/218/214 45/224/220 44/225/221
f 34/218/214 44/225/221 43/226/222
f 34/218/214 43/226/222 35/227/223
f 35/227/223 43/226/222 42/228/224
f 35/227/223 42/228/224 36/229/225
f 36/229/225 42/228/224 41/230/226
f 36/229/225 41/230/226 37/231/227
f 37/231/227 41/230/226 40/232/228
f 37/231/227 40/232/228 38/233/229
f 38/233/229 40/232/228 39/234/230
f 33/235/231 31/236/232 34/218/214
f 34/218/214 31/236/232 30/237/233
f 34/218/214 30/237/233 29/238/234
f 33/235/231 32/239/235 31/236/232
f 29/238/234 28/240/236 34/218/214
f 34/218/214 28/240/236 27/216/212
f 125/241/237 126/242/238 130/243/239
f 130/243/239 126/242/238 113/244/240
f 113/244/240 126/242/238 127/245/241
f 113/244/240 127/245/241 114/246/242
f 114/246/242 127/245/241 129/247/243
f 129/247/243 127/245/241 128/248/244
f 131/249/245 130/250/246 116/251/247
f 116/251/247 130/250/246 113/252/248
f 132/253/249 131/254/250 115/255/251
f 115/255/251 131/254/250 116/256/252
f 129/257/253 132/258/254 114/259/255
f 114/259/255 132/258/254 115/260/256
f 126/261/257 125/262/258 118/263/259
f 118/263/259 125/262/258 119/264/260
f 127/265/261 126/266/262 117/267/263
f 117/267/263 126/266/262 118/268/264
f 128/269/265 127/270/266 120/271/267
f 120/271/267 127/270/266 117/272/268
f 120/273/269 119/274/270 128/275/271
f 128/275/271 119/274/270 125/276/272
f 128/275/271 125/276/272 132/277/273
f 132/277/273 125/276/272 131/278/274
f 131/278/274 125/276/272 130/279/275
f 132/277/273 129/280/276 128/275/271
f 133/281/277 134/282/278 124/283/279
f 124/283/279 134/282/278 121/284/280
f 123/285/281 135/286/282 124/287/283
f 124/287/283 135/286/282 133/288/284
f 135/289/285 136/290/286 133/291/287
f 133/291/287 136/290/286 134/292/288
f 136/293/289 122/294/290 134/295/291
f 134/295/291 122/294/290 121/296/292
f 136/297/293 135/298/294 122/299/295
f 122/299/295 135/298/294 123/300/296
# 136 vertices
# 300 texture params
# 296 normals
# 268 facets

# 1 groups
