# WaveFront *.obj file (generated by Autodesk ATF)

mtllib Light.mtl

g Light

v 1187.000000 -1100.000000 2980.000000
v 1187.016646 -1100.556179 2980.000000
v 1187.066524 -1101.110366 2980.000000
v 1187.149455 -1101.660579 2980.000000
v 1187.265143 -1102.204848 2980.000000
v 1187.413173 -1102.741223 2980.000000
v 1187.593016 -1103.267786 2980.000000
v 1187.804027 -1103.782651 2980.000000
v 1188.045452 -1104.283975 2980.000000
v 1188.316426 -1104.769963 2980.000000
v 1188.615979 -1105.238877 2980.000000
v 1188.943039 -1105.689036 2980.000000
v 1189.296435 -1106.118830 2980.000000
v 1189.674902 -1106.526720 2980.000000
v 1190.077085 -1106.911247 2980.000000
v 1190.501545 -1107.271033 2980.000000
v 1190.946761 -1107.604790 2980.000000
v 1191.411141 -1107.911325 2980.000000
v 1191.893021 -1108.189538 2980.000000
v 1192.390678 -1108.438436 2980.000000
v 1192.902328 -1108.657126 2980.000000
v 1193.426142 -1108.844826 2980.000000
v 1193.960243 -1109.000863 2980.000000
v 1194.502720 -1109.124680 2980.000000
v 1195.051631 -1109.215833 2980.000000
v 1195.605010 -1109.273995 2980.000000
v 1196.160878 -1109.298959 2980.000000
v 1196.717243 -1109.290636 2980.000000
v 1197.272115 -1109.249054 2980.000000
v 1197.823507 -1109.174363 2980.000000
v 1198.369445 -1109.066830 2980.000000
v 1198.907975 -1108.926840 2980.000000
v 1199.437169 -1108.754894 2980.000000
v 1199.955133 -1108.551608 2980.000000
v 1200.460012 -1108.317710 2980.000000
v 1200.950000 -1108.054036 2980.000000
v 1201.423342 -1107.761531 2980.000000
v 1201.878344 -1107.441242 2980.000000
v 1202.313376 -1107.094315 2980.000000
v 1202.726883 -1106.721992 2980.000000
v 1203.117382 -1106.325606 2980.000000
v 1203.483478 -1105.906577 2980.000000
v 1203.823858 -1105.466403 2980.000000
v 1204.137305 -1105.006661 2980.000000
v 1204.422696 -1104.528996 2980.000000
v 1204.679010 -1104.035119 2980.000000
v 1204.905330 -1103.526797 2980.000000
v 1205.100845 -1103.005850 2980.000000
v 1205.264855 -1102.474143 2980.000000
v 1205.396773 -1101.933579 2980.000000
v 1205.496127 -1101.386093 2980.000000
v 1205.562561 -1100.833646 2980.000000
v 1205.595838 -1100.278214 2980.000000
v 1205.595838 -1099.721786 2980.000000
v 1205.562561 -1099.166354 2980.000000
v 1205.496127 -1098.613907 2980.000000
v 1205.396773 -1098.066421 2980.000000
v 1205.264855 -1097.525857 2980.000000
v 1205.100845 -1096.994150 2980.000000
v 1204.905330 -1096.473203 2980.000000
v 1204.679010 -1095.964881 2980.000000
v 1204.422696 -1095.471004 2980.000000
v 1204.137305 -1094.993339 2980.000000
v 1203.823858 -1094.533597 2980.000000
v 1203.483478 -1094.093423 2980.000000
v 1203.117382 -1093.674394 2980.000000
v 1202.726883 -1093.278008 2980.000000
v 1202.313376 -1092.905685 2980.000000
v 1201.878344 -1092.558758 2980.000000
v 1201.423342 -1092.238469 2980.000000
v 1200.950000 -1091.945964 2980.000000
v 1200.460012 -1091.682290 2980.000000
v 1199.955133 -1091.448392 2980.000000
v 1199.437169 -1091.245106 2980.000000
v 1198.907975 -1091.073160 2980.000000
v 1198.369445 -1090.933170 2980.000000
v 1197.823507 -1090.825637 2980.000000
v 1197.272115 -1090.750946 2980.000000
v 1196.717243 -1090.709364 2980.000000
v 1196.160878 -1090.701041 2980.000000
v 1195.605010 -1090.726005 2980.000000
v 1195.051631 -1090.784167 2980.000000
v 1194.502720 -1090.875320 2980.000000
v 1193.960243 -1090.999137 2980.000000
v 1193.426142 -1091.155174 2980.000000
v 1192.902328 -1091.342874 2980.000000
v 1192.390678 -1091.561564 2980.000000
v 1191.893021 -1091.810462 2980.000000
v 1191.411141 -1092.088675 2980.000000
v 1190.946761 -1092.395210 2980.000000
v 1190.501545 -1092.728967 2980.000000
v 1190.077085 -1093.088753 2980.000000
v 1189.674902 -1093.473280 2980.000000
v 1189.296435 -1093.881170 2980.000000
v 1188.943039 -1094.310964 2980.000000
v 1188.615979 -1094.761123 2980.000000
v 1188.316426 -1095.230037 2980.000000
v 1188.045452 -1095.716025 2980.000000
v 1187.804027 -1096.217349 2980.000000
v 1187.593016 -1096.732214 2980.000000
v 1187.413173 -1097.258777 2980.000000
v 1187.265143 -1097.795152 2980.000000
v 1187.149455 -1098.339421 2980.000000
v 1187.066524 -1098.889634 2980.000000
v 1187.016646 -1099.443821 2980.000000
v 1187.000000 -1100.000000 2982.000000
v 1187.016646 -1099.443821 2982.000000
v 1187.066524 -1098.889634 2982.000000
v 1187.149455 -1098.339421 2982.000000
v 1187.265143 -1097.795152 2982.000000
v 1187.413173 -1097.258777 2982.000000
v 1187.593016 -1096.732214 2982.000000
v 1187.804027 -1096.217349 2982.000000
v 1188.045452 -1095.716025 2982.000000
v 1188.316426 -1095.230037 2982.000000
v 1188.615979 -1094.761123 2982.000000
v 1188.943039 -1094.310964 2982.000000
v 1189.296435 -1093.881170 2982.000000
v 1189.674902 -1093.473280 2982.000000
v 1190.077085 -1093.088753 2982.000000
v 1190.501545 -1092.728967 2982.000000
v 1190.946761 -1092.395210 2982.000000
v 1191.411141 -1092.088675 2982.000000
v 1191.893021 -1091.810462 2982.000000
v 1192.390678 -1091.561564 2982.000000
v 1192.902328 -1091.342874 2982.000000
v 1193.426142 -1091.155174 2982.000000
v 1193.960243 -1090.999137 2982.000000
v 1194.502720 -1090.875320 2982.000000
v 1195.051631 -1090.784167 2982.000000
v 1195.605010 -1090.726005 2982.000000
v 1196.160878 -1090.701041 2982.000000
v 1196.717243 -1090.709364 2982.000000
v 1197.272115 -1090.750946 2982.000000
v 1197.823507 -1090.825637 2982.000000
v 1198.369445 -1090.933170 2982.000000
v 1198.907975 -1091.073160 2982.000000
v 1199.437169 -1091.245106 2982.000000
v 1199.955133 -1091.448392 2982.000000
v 1200.460012 -1091.682290 2982.000000
v 1200.950000 -1091.945964 2982.000000
v 1201.423342 -1092.238469 2982.000000
v 1201.878344 -1092.558758 2982.000000
v 1202.313376 -1092.905685 2982.000000
v 1202.726883 -1093.278008 2982.000000
v 1203.117382 -1093.674394 2982.000000
v 1203.483478 -1094.093423 2982.000000
v 1203.823858 -1094.533597 2982.000000
v 1204.137305 -1094.993339 2982.000000
v 1204.422696 -1095.471004 2982.000000
v 1204.679010 -1095.964881 2982.000000
v 1204.905330 -1096.473203 2982.000000
v 1205.100845 -1096.994150 2982.000000
v 1205.264855 -1097.525857 2982.000000
v 1205.396773 -1098.066421 2982.000000
v 1205.496127 -1098.613907 2982.000000
v 1205.562561 -1099.166354 2982.000000
v 1205.595838 -1099.721786 2982.000000
v 1205.595838 -1100.278214 2982.000000
v 1205.562561 -1100.833646 2982.000000
v 1205.496127 -1101.386093 2982.000000
v 1205.396773 -1101.933579 2982.000000
v 1205.264855 -1102.474143 2982.000000
v 1205.100845 -1103.005850 2982.000000
v 1204.905330 -1103.526797 2982.000000
v 1204.679010 -1104.035119 2982.000000
v 1204.422696 -1104.528996 2982.000000
v 1204.137305 -1105.006661 2982.000000
v 1203.823858 -1105.466403 2982.000000
v 1203.483478 -1105.906577 2982.000000
v 1203.117382 -1106.325606 2982.000000
v 1202.726883 -1106.721992 2982.000000
v 1202.313376 -1107.094315 2982.000000
v 1201.878344 -1107.441242 2982.000000
v 1201.423342 -1107.761531 2982.000000
v 1200.950000 -1108.054036 2982.000000
v 1200.460012 -1108.317710 2982.000000
v 1199.955133 -1108.551608 2982.000000
v 1199.437169 -1108.754894 2982.000000
v 1198.907975 -1108.926840 2982.000000
v 1198.369445 -1109.066830 2982.000000
v 1197.823507 -1109.174363 2982.000000
v 1197.272115 -1109.249054 2982.000000
v 1196.717243 -1109.290636 2982.000000
v 1196.160878 -1109.298959 2982.000000
v 1195.605010 -1109.273995 2982.000000
v 1195.051631 -1109.215833 2982.000000
v 1194.502720 -1109.124680 2982.000000
v 1193.960243 -1109.000863 2982.000000
v 1193.426142 -1108.844826 2982.000000
v 1192.902328 -1108.657126 2982.000000
v 1192.390678 -1108.438436 2982.000000
v 1191.893021 -1108.189538 2982.000000
v 1191.411141 -1107.911325 2982.000000
v 1190.946761 -1107.604790 2982.000000
v 1190.501545 -1107.271033 2982.000000
v 1190.077085 -1106.911247 2982.000000
v 1189.674902 -1106.526720 2982.000000
v 1189.296435 -1106.118830 2982.000000
v 1188.943039 -1105.689036 2982.000000
v 1188.615979 -1105.238877 2982.000000
v 1188.316426 -1104.769963 2982.000000
v 1188.045452 -1104.283975 2982.000000
v 1187.804027 -1103.782651 2982.000000
v 1187.593016 -1103.267786 2982.000000
v 1187.413173 -1102.741223 2982.000000
v 1187.265143 -1102.204848 2982.000000
v 1187.149455 -1101.660579 2982.000000
v 1187.066524 -1101.110366 2982.000000
v 1187.016646 -1100.556179 2982.000000
vt -0.200000 2.866030 0.000000
vt 0.000000 2.866030 0.000000
vt -0.200000 2.921681 0.000000
vt -0.000000 2.921681 0.000000
vt -0.200000 -2.921681 0.000000
vt -0.000000 -2.921681 0.000000
vt -0.200000 -2.866030 0.000000
vt -0.000000 -2.866030 0.000000
vt -0.200000 -2.810379 0.000000
vt -0.000000 -2.810379 0.000000
vt -0.200000 -2.754728 0.000000
vt -0.000000 -2.754728 0.000000
vt -0.200000 -2.699077 0.000000
vt -0.000000 -2.699077 0.000000
vt -0.200000 -2.643426 0.000000
vt -0.000000 -2.643426 0.000000
vt -0.200000 -2.587775 0.000000
vt -0.000000 -2.587775 0.000000
vt -0.200000 -2.532124 0.000000
vt -0.000000 -2.532124 0.000000
vt -0.200000 -2.476473 0.000000
vt -0.000000 -2.476473 0.000000
vt -0.200000 -2.420822 0.000000
vt -0.000000 -2.420822 0.000000
vt -0.200000 -2.365170 0.000000
vt -0.000000 -2.365170 0.000000
vt -0.200000 -2.309519 0.000000
vt -0.000000 -2.309519 0.000000
vt -0.200000 -2.253868 0.000000
vt -0.000000 -2.253868 0.000000
vt -0.200000 -2.198217 0.000000
vt -0.000000 -2.198217 0.000000
vt -0.200000 -2.142566 0.000000
vt -0.000000 -2.142566 0.000000
vt -0.200000 -2.086915 0.000000
vt -0.000000 -2.086915 0.000000
vt -0.200000 -2.031264 0.000000
vt -0.000000 -2.031264 0.000000
vt -0.200000 -1.975613 0.000000
vt -0.000000 -1.975613 0.000000
vt -0.200000 -1.919962 0.000000
vt -0.000000 -1.919962 0.000000
vt -0.200000 -1.864311 0.000000
vt -0.000000 -1.864311 0.000000
vt -0.200000 -1.808660 0.000000
vt -0.000000 -1.808660 0.000000
vt -0.200000 -1.753009 0.000000
vt -0.000000 -1.753009 0.000000
vt -0.200000 -1.697358 0.000000
vt -0.000000 -1.697358 0.000000
vt -0.200000 -1.641707 0.000000
vt -0.000000 -1.641707 0.000000
vt -0.200000 -1.586055 0.000000
vt -0.000000 -1.586055 0.000000
vt -0.200000 -1.530404 0.000000
vt -0.000000 -1.530404 0.000000
vt -0.200000 -1.474753 0.000000
vt -0.000000 -1.474753 0.000000
vt -0.200000 -1.419102 0.000000
vt -0.000000 -1.419102 0.000000
vt -0.200000 -1.363451 0.000000
vt -0.000000 -1.363451 0.000000
vt -0.200000 -1.307800 0.000000
vt -0.000000 -1.307800 0.000000
vt -0.200000 -1.252149 0.000000
vt -0.000000 -1.252149 0.000000
vt -0.200000 -1.196498 0.000000
vt -0.000000 -1.196498 0.000000
vt -0.200000 -1.140847 0.000000
vt -0.000000 -1.140847 0.000000
vt -0.200000 -1.085196 0.000000
vt -0.000000 -1.085196 0.000000
vt -0.200000 -1.029545 0.000000
vt -0.000000 -1.029545 0.000000
vt -0.200000 -0.973894 0.000000
vt -0.000000 -0.973894 0.000000
vt -0.200000 -0.918243 0.000000
vt -0.000000 -0.918243 0.000000
vt -0.200000 -0.862592 0.000000
vt -0.000000 -0.862592 0.000000
vt -0.200000 -0.806941 0.000000
vt -0.000000 -0.806941 0.000000
vt -0.200000 -0.751289 0.000000
vt -0.000000 -0.751289 0.000000
vt -0.200000 -0.695638 0.000000
vt -0.000000 -0.695638 0.000000
vt -0.200000 -0.639987 0.000000
vt -0.000000 -0.639987 0.000000
vt -0.200000 -0.584336 0.000000
vt -0.000000 -0.584336 0.000000
vt -0.200000 -0.528685 0.000000
vt -0.000000 -0.528685 0.000000
vt -0.200000 -0.473034 0.000000
vt -0.000000 -0.473034 0.000000
vt -0.200000 -0.417383 0.000000
vt -0.000000 -0.417383 0.000000
vt -0.200000 -0.361732 0.000000
vt -0.000000 -0.361732 0.000000
vt -0.200000 -0.306081 0.000000
vt -0.000000 -0.306081 0.000000
vt -0.200000 -0.250430 0.000000
vt -0.000000 -0.250430 0.000000
vt -0.200000 -0.194779 0.000000
vt -0.000000 -0.194779 0.000000
vt -0.200000 -0.139128 0.000000
vt -0.000000 -0.139128 0.000000
vt -0.200000 -0.083477 0.000000
vt -0.000000 -0.083477 0.000000
vt -0.200000 -0.027826 0.000000
vt -0.000000 -0.027826 0.000000
vt -0.200000 0.027826 0.000000
vt -0.000000 0.027826 0.000000
vt -0.200000 0.083477 0.000000
vt -0.000000 0.083477 0.000000
vt -0.200000 0.139128 0.000000
vt -0.000000 0.139128 0.000000
vt -0.200000 0.194779 0.000000
vt -0.000000 0.194779 0.000000
vt -0.200000 0.250430 0.000000
vt -0.000000 0.250430 0.000000
vt -0.200000 0.306081 0.000000
vt -0.000000 0.306081 0.000000
vt -0.200000 0.361732 0.000000
vt -0.000000 0.361732 0.000000
vt -0.200000 0.417383 0.000000
vt -0.000000 0.417383 0.000000
vt -0.200000 0.473034 0.000000
vt -0.000000 0.473034 0.000000
vt -0.200000 0.528685 0.000000
vt -0.000000 0.528685 0.000000
vt -0.200000 0.584336 0.000000
vt -0.000000 0.584336 0.000000
vt -0.200000 0.639987 0.000000
vt -0.000000 0.639987 0.000000
vt -0.200000 0.695638 0.000000
vt -0.000000 0.695638 0.000000
vt -0.200000 0.751289 0.000000
vt -0.000000 0.751289 0.000000
vt -0.200000 0.806941 0.000000
vt -0.000000 0.806941 0.000000
vt -0.200000 0.862592 0.000000
vt -0.000000 0.862592 0.000000
vt -0.200000 0.918243 0.000000
vt -0.000000 0.918243 0.000000
vt -0.200000 0.973894 0.000000
vt -0.000000 0.973894 0.000000
vt -0.200000 1.029545 0.000000
vt -0.000000 1.029545 0.000000
vt -0.200000 1.085196 0.000000
vt -0.000000 1.085196 0.000000
vt -0.200000 1.140847 0.000000
vt -0.000000 1.140847 0.000000
vt -0.200000 1.196498 0.000000
vt -0.000000 1.196498 0.000000
vt -0.200000 1.252149 0.000000
vt -0.000000 1.252149 0.000000
vt -0.200000 1.307800 0.000000
vt -0.000000 1.307800 0.000000
vt -0.200000 1.363451 0.000000
vt -0.000000 1.363451 0.000000
vt -0.200000 1.419102 0.000000
vt -0.000000 1.419102 0.000000
vt -0.200000 1.474753 0.000000
vt -0.000000 1.474753 0.000000
vt -0.200000 1.530404 0.000000
vt 0.000000 1.530404 0.000000
vt -0.200000 1.586055 0.000000
vt 0.000000 1.586055 0.000000
vt -0.200000 1.641707 0.000000
vt -0.000000 1.641707 0.000000
vt -0.200000 1.697358 0.000000
vt 0.000000 1.697358 0.000000
vt -0.200000 1.753009 0.000000
vt -0.000000 1.753009 0.000000
vt -0.200000 1.808660 0.000000
vt -0.000000 1.808660 0.000000
vt -0.200000 1.864311 0.000000
vt -0.000000 1.864311 0.000000
vt -0.200000 1.919962 0.000000
vt 0.000000 1.919962 0.000000
vt -0.200000 1.975613 0.000000
vt -0.000000 1.975613 0.000000
vt -0.200000 2.031264 0.000000
vt 0.000000 2.031264 0.000000
vt -0.200000 2.086915 0.000000
vt 0.000000 2.086915 0.000000
vt -0.200000 2.142566 0.000000
vt 0.000000 2.142566 0.000000
vt -0.200000 2.198217 0.000000
vt 0.000000 2.198217 0.000000
vt -0.200000 2.253868 0.000000
vt -0.000000 2.253868 0.000000
vt -0.200000 2.309519 0.000000
vt -0.000000 2.309519 0.000000
vt -0.200000 2.365170 0.000000
vt 0.000000 2.365170 0.000000
vt -0.200000 2.420822 0.000000
vt -0.000000 2.420822 0.000000
vt -0.200000 2.476473 0.000000
vt -0.000000 2.476473 0.000000
vt -0.200000 2.532124 0.000000
vt -0.000000 2.532124 0.000000
vt -0.200000 2.587775 0.000000
vt 0.000000 2.587775 0.000000
vt -0.200000 2.643426 0.000000
vt -0.000000 2.643426 0.000000
vt -0.200000 2.699077 0.000000
vt 0.000000 2.699077 0.000000
vt -0.200000 2.754728 0.000000
vt 0.000000 2.754728 0.000000
vt -0.200000 2.810379 0.000000
vt -0.000000 2.810379 0.000000
vt 0.928335 0.055618 0.000000
vt -0.929584 0.027821 0.000000
vt 0.930000 0.000000 0.000000
vt -0.929584 -0.027821 0.000000
vt 0.928335 -0.055618 0.000000
vt -0.926256 -0.083365 0.000000
vt 0.923348 -0.111037 0.000000
vt -0.919613 -0.138609 0.000000
vt 0.915055 -0.166058 0.000000
vt -0.909677 -0.193358 0.000000
vt 0.903486 -0.220485 0.000000
vt -0.896485 -0.247414 0.000000
vt 0.888683 -0.274122 0.000000
vt -0.880084 -0.300585 0.000000
vt 0.870698 -0.326779 0.000000
vt -0.860533 -0.352680 0.000000
vt 0.849597 -0.378265 0.000000
vt -0.837901 -0.403512 0.000000
vt 0.825455 -0.428397 0.000000
vt -0.812270 -0.452900 0.000000
vt 0.798357 -0.476996 0.000000
vt -0.783730 -0.500666 0.000000
vt 0.768402 -0.523888 0.000000
vt -0.752386 -0.546640 0.000000
vt 0.735696 -0.568904 0.000000
vt -0.718348 -0.590658 0.000000
vt 0.700356 -0.611883 0.000000
vt -0.681738 -0.632561 0.000000
vt 0.662510 -0.652672 0.000000
vt -0.642688 -0.672199 0.000000
vt 0.622291 -0.691125 0.000000
vt -0.601338 -0.709432 0.000000
vt 0.579846 -0.727103 0.000000
vt -0.557834 -0.744124 0.000000
vt 0.535324 -0.760479 0.000000
vt -0.512334 -0.776153 0.000000
vt 0.488886 -0.791132 0.000000
vt -0.465000 -0.805404 0.000000
vt 0.440698 -0.818954 0.000000
vt -0.416001 -0.831771 0.000000
vt 0.390932 -0.843844 0.000000
vt -0.365513 -0.855161 0.000000
vt 0.339767 -0.865713 0.000000
vt -0.313717 -0.875489 0.000000
vt 0.287386 -0.884483 0.000000
vt -0.260797 -0.892684 0.000000
vt 0.233976 -0.900086 0.000000
vt -0.206944 -0.906683 0.000000
vt 0.179728 -0.912468 0.000000
vt -0.152351 -0.917436 0.000000
vt 0.124837 -0.921583 0.000000
vt -0.097211 -0.924905 0.000000
vt 0.069499 -0.927400 0.000000
vt -0.041724 -0.929064 0.000000
vt 0.013912 -0.929896 0.000000
vt -0.926256 0.083365 0.000000
vt 0.923348 0.111037 0.000000
vt -0.919613 0.138609 0.000000
vt 0.915055 0.166058 0.000000
vt -0.909677 0.193358 0.000000
vt 0.903486 0.220485 0.000000
vt -0.896485 0.247414 0.000000
vt 0.888683 0.274122 0.000000
vt 0.870698 0.326779 0.000000
vt 0.849597 0.378265 0.000000
vt 0.825455 0.428397 0.000000
vt 0.798357 0.476996 0.000000
vt -0.880084 0.300585 0.000000
vt 0.768402 0.523888 0.000000
vt 0.735696 0.568904 0.000000
vt 0.700356 0.611883 0.000000
vt 0.662510 0.652672 0.000000
vt 0.622291 0.691125 0.000000
vt 0.579846 0.727103 0.000000
vt 0.535324 0.760479 0.000000
vt 0.488886 0.791132 0.000000
vt 0.440698 0.818954 0.000000
vt 0.390932 0.843844 0.000000
vt 0.339767 0.865713 0.000000
vt 0.287386 0.884483 0.000000
vt 0.233976 0.900086 0.000000
vt 0.179728 0.912468 0.000000
vt 0.124837 0.921583 0.000000
vt 0.069499 0.927400 0.000000
vt 0.013912 0.929896 0.000000
vt -0.041724 0.929064 0.000000
vt -0.097211 0.924905 0.000000
vt -0.152351 0.917436 0.000000
vt -0.206944 0.906683 0.000000
vt -0.260797 0.892684 0.000000
vt -0.313717 0.875489 0.000000
vt -0.365513 0.855161 0.000000
vt -0.416001 0.831771 0.000000
vt -0.465000 0.805404 0.000000
vt -0.512334 0.776153 0.000000
vt -0.557834 0.744124 0.000000
vt -0.601338 0.709432 0.000000
vt -0.642688 0.672199 0.000000
vt -0.681738 0.632561 0.000000
vt -0.718348 0.590658 0.000000
vt -0.752386 0.546640 0.000000
vt -0.783730 0.500666 0.000000
vt -0.812270 0.452900 0.000000
vt -0.837901 0.403512 0.000000
vt -0.860533 0.352680 0.000000
vt -0.928335 -0.055618 0.000000
vt 0.929584 -0.027821 0.000000
vt -0.930000 0.000000 0.000000
vt 0.929584 0.027821 0.000000
vt -0.928335 0.055618 0.000000
vt 0.926256 0.083365 0.000000
vt -0.923348 0.111037 0.000000
vt 0.919613 0.138609 0.000000
vt -0.915055 0.166058 0.000000
vt 0.909677 0.193358 0.000000
vt -0.903486 0.220485 0.000000
vt 0.896485 0.247414 0.000000
vt -0.888683 0.274122 0.000000
vt -0.870698 0.326779 0.000000
vt -0.849597 0.378265 0.000000
vt -0.825455 0.428397 0.000000
vt -0.798357 0.476996 0.000000
vt 0.880084 0.300585 0.000000
vt -0.768402 0.523888 0.000000
vt -0.735696 0.568904 0.000000
vt -0.700356 0.611883 0.000000
vt -0.662510 0.652672 0.000000
vt -0.622291 0.691125 0.000000
vt -0.579846 0.727103 0.000000
vt -0.535324 0.760479 0.000000
vt -0.488886 0.791132 0.000000
vt -0.440698 0.818954 0.000000
vt -0.390932 0.843844 0.000000
vt -0.339767 0.865713 0.000000
vt -0.287386 0.884483 0.000000
vt -0.233976 0.900086 0.000000
vt -0.179728 0.912468 0.000000
vt -0.124837 0.921583 0.000000
vt -0.069499 0.927400 0.000000
vt -0.013912 0.929896 0.000000
vt 0.041724 0.929064 0.000000
vt 0.097211 0.924905 0.000000
vt 0.152351 0.917436 0.000000
vt 0.206944 0.906683 0.000000
vt 0.260797 0.892684 0.000000
vt 0.313717 0.875489 0.000000
vt 0.365513 0.855161 0.000000
vt 0.416001 0.831771 0.000000
vt 0.465000 0.805404 0.000000
vt 0.512334 0.776153 0.000000
vt 0.557834 0.744124 0.000000
vt 0.601338 0.709432 0.000000
vt 0.642688 0.672199 0.000000
vt 0.681738 0.632561 0.000000
vt 0.718348 0.590658 0.000000
vt 0.752386 0.546640 0.000000
vt 0.783730 0.500666 0.000000
vt 0.812270 0.452900 0.000000
vt 0.837901 0.403512 0.000000
vt 0.860533 0.352680 0.000000
vt 0.926256 -0.083365 0.000000
vt -0.923348 -0.111037 0.000000
vt 0.919613 -0.138609 0.000000
vt -0.915055 -0.166058 0.000000
vt 0.909677 -0.193358 0.000000
vt -0.903486 -0.220485 0.000000
vt 0.896485 -0.247414 0.000000
vt -0.888683 -0.274122 0.000000
vt 0.880084 -0.300585 0.000000
vt -0.870698 -0.326779 0.000000
vt 0.860533 -0.352680 0.000000
vt -0.849597 -0.378265 0.000000
vt 0.837901 -0.403512 0.000000
vt -0.825455 -0.428397 0.000000
vt 0.812270 -0.452900 0.000000
vt -0.798357 -0.476996 0.000000
vt 0.783730 -0.500666 0.000000
vt -0.768402 -0.523888 0.000000
vt 0.752386 -0.546640 0.000000
vt -0.735696 -0.568904 0.000000
vt 0.718348 -0.590658 0.000000
vt -0.700356 -0.611883 0.000000
vt 0.681738 -0.632561 0.000000
vt -0.662510 -0.652672 0.000000
vt 0.642688 -0.672199 0.000000
vt -0.622291 -0.691125 0.000000
vt 0.601338 -0.709432 0.000000
vt -0.579846 -0.727103 0.000000
vt 0.557834 -0.744124 0.000000
vt -0.535324 -0.760479 0.000000
vt 0.512334 -0.776153 0.000000
vt -0.488886 -0.791132 0.000000
vt 0.465000 -0.805404 0.000000
vt -0.440698 -0.818954 0.000000
vt 0.416001 -0.831771 0.000000
vt -0.390932 -0.843844 0.000000
vt 0.365513 -0.855161 0.000000
vt -0.339767 -0.865713 0.000000
vt 0.313717 -0.875489 0.000000
vt -0.287386 -0.884483 0.000000
vt 0.260797 -0.892684 0.000000
vt -0.233976 -0.900086 0.000000
vt 0.206944 -0.906683 0.000000
vt -0.179728 -0.912468 0.000000
vt 0.152351 -0.917436 0.000000
vt -0.124837 -0.921583 0.000000
vt 0.097211 -0.924905 0.000000
vt -0.069499 -0.927400 0.000000
vt 0.041724 -0.929064 0.000000
vt -0.013912 -0.929896 0.000000
vn -0.099821 -0.005980 0.000000
vn -0.099821 -0.005980 0.000000
vn -0.100000 -0.000000 0.000000
vn -0.100000 -0.000000 0.000000
vn -0.099821 0.005980 -0.000000
vn -0.099821 0.005980 -0.000000
vn -0.099285 0.011939 -0.000000
vn -0.099285 0.011939 -0.000000
vn -0.098393 0.017856 -0.000000
vn -0.098393 0.017856 -0.000000
vn -0.097149 0.023708 -0.000000
vn -0.097149 0.023708 -0.000000
vn -0.095557 0.029476 -0.000000
vn -0.095557 0.029476 -0.000000
vn -0.093623 0.035137 -0.000000
vn -0.093623 0.035137 -0.000000
vn -0.091355 0.040674 -0.000000
vn -0.091355 0.040674 -0.000000
vn -0.088759 0.046064 -0.000000
vn -0.088759 0.046064 -0.000000
vn -0.085845 0.051290 -0.000000
vn -0.085845 0.051290 -0.000000
vn -0.082624 0.056332 -0.000000
vn -0.082624 0.056332 -0.000000
vn -0.079107 0.061172 -0.000000
vn -0.079107 0.061172 -0.000000
vn -0.075307 0.065794 -0.000000
vn -0.075307 0.065794 -0.000000
vn -0.071238 0.070180 -0.000000
vn -0.071238 0.070180 -0.000000
vn -0.066913 0.074314 -0.000000
vn -0.066913 0.074314 -0.000000
vn -0.062349 0.078183 -0.000000
vn -0.062349 0.078183 -0.000000
vn -0.057562 0.081772 -0.000000
vn -0.057562 0.081772 -0.000000
vn -0.052568 0.085068 -0.000000
vn -0.052568 0.085068 -0.000000
vn -0.047387 0.088060 -0.000000
vn -0.047387 0.088060 -0.000000
vn -0.042036 0.090736 -0.000000
vn -0.042036 0.090736 -0.000000
vn -0.036534 0.093087 -0.000000
vn -0.036534 0.093087 -0.000000
vn -0.030902 0.095106 -0.000000
vn -0.030902 0.095106 -0.000000
vn -0.025159 0.096783 -0.000000
vn -0.025159 0.096783 -0.000000
vn -0.019326 0.098115 -0.000000
vn -0.019326 0.098115 -0.000000
vn -0.013423 0.099095 -0.000000
vn -0.013423 0.099095 -0.000000
vn -0.007473 0.099720 -0.000000
vn -0.007473 0.099720 -0.000000
vn -0.001496 0.099989 -0.000000
vn -0.001496 0.099989 -0.000000
vn 0.004486 0.099899 0.000000
vn 0.004486 0.099899 0.000000
vn 0.010453 0.099452 0.000000
vn 0.010453 0.099452 0.000000
vn 0.016382 0.098649 0.000000
vn 0.016382 0.098649 0.000000
vn 0.022252 0.097493 0.000000
vn 0.022252 0.097493 0.000000
vn 0.028043 0.095988 0.000000
vn 0.028043 0.095988 0.000000
vn 0.033733 0.094139 0.000000
vn 0.033733 0.094139 0.000000
vn 0.039303 0.091953 0.000000
vn 0.039303 0.091953 0.000000
vn 0.044731 0.089438 0.000000
vn 0.044731 0.089438 0.000000
vn 0.050000 0.086603 0.000000
vn 0.050000 0.086603 0.000000
vn 0.055090 0.083457 0.000000
vn 0.055090 0.083457 0.000000
vn 0.059982 0.080013 0.000000
vn 0.059982 0.080013 0.000000
vn 0.064660 0.076283 0.000000
vn 0.064660 0.076283 0.000000
vn 0.069106 0.072279 0.000000
vn 0.069106 0.072279 0.000000
vn 0.073305 0.068017 0.000000
vn 0.073305 0.068017 0.000000
vn 0.077242 0.063512 0.000000
vn 0.077242 0.063512 0.000000
vn 0.080902 0.058779 0.000000
vn 0.080902 0.058779 0.000000
vn 0.084272 0.053835 0.000000
vn 0.084272 0.053835 0.000000
vn 0.087341 0.048699 0.000000
vn 0.087341 0.048699 0.000000
vn 0.090097 0.043388 0.000000
vn 0.090097 0.043388 0.000000
vn 0.092530 0.037923 0.000000
vn 0.092530 0.037923 0.000000
vn 0.094633 0.032321 0.000000
vn 0.094633 0.032321 0.000000
vn 0.096396 0.026604 0.000000
vn 0.096396 0.026604 0.000000
vn 0.097815 0.020791 0.000000
vn 0.097815 0.020791 0.000000
vn 0.098883 0.014904 0.000000
vn 0.098883 0.014904 0.000000
vn 0.099597 0.008964 0.000000
vn 0.099597 0.008964 0.000000
vn 0.099955 0.002992 0.000000
vn 0.099955 0.002992 0.000000
vn 0.099955 -0.002992 0.000000
vn 0.099955 -0.002992 0.000000
vn 0.099597 -0.008964 0.000000
vn 0.099597 -0.008964 0.000000
vn 0.098883 -0.014904 0.000000
vn 0.098883 -0.014904 0.000000
vn 0.097815 -0.020791 0.000000
vn 0.097815 -0.020791 0.000000
vn 0.096396 -0.026604 0.000000
vn 0.096396 -0.026604 0.000000
vn 0.094633 -0.032321 0.000000
vn 0.094633 -0.032321 0.000000
vn 0.092530 -0.037923 0.000000
vn 0.092530 -0.037923 0.000000
vn 0.090097 -0.043388 0.000000
vn 0.090097 -0.043388 0.000000
vn 0.087341 -0.048699 0.000000
vn 0.087341 -0.048699 0.000000
vn 0.084272 -0.053835 0.000000
vn 0.084272 -0.053835 0.000000
vn 0.080902 -0.058779 0.000000
vn 0.080902 -0.058779 0.000000
vn 0.077242 -0.063512 0.000000
vn 0.077242 -0.063512 0.000000
vn 0.073305 -0.068017 0.000000
vn 0.073305 -0.068017 0.000000
vn 0.069106 -0.072279 0.000000
vn 0.069106 -0.072279 0.000000
vn 0.064660 -0.076283 0.000000
vn 0.064660 -0.076283 0.000000
vn 0.059982 -0.080013 0.000000
vn 0.059982 -0.080013 0.000000
vn 0.055090 -0.083457 0.000000
vn 0.055090 -0.083457 0.000000
vn 0.050000 -0.086603 0.000000
vn 0.050000 -0.086603 0.000000
vn 0.044731 -0.089438 0.000000
vn 0.044731 -0.089438 0.000000
vn 0.039303 -0.091953 0.000000
vn 0.039303 -0.091953 0.000000
vn 0.033733 -0.094139 0.000000
vn 0.033733 -0.094139 0.000000
vn 0.028043 -0.095988 0.000000
vn 0.028043 -0.095988 0.000000
vn 0.022252 -0.097493 0.000000
vn 0.022252 -0.097493 0.000000
vn 0.016382 -0.098649 0.000000
vn 0.016382 -0.098649 0.000000
vn 0.010453 -0.099452 0.000000
vn 0.010453 -0.099452 0.000000
vn 0.004486 -0.099899 0.000000
vn 0.004486 -0.099899 0.000000
vn -0.001496 -0.099989 0.000000
vn -0.001496 -0.099989 0.000000
vn -0.007473 -0.099720 0.000000
vn -0.007473 -0.099720 0.000000
vn -0.013423 -0.099095 0.000000
vn -0.013423 -0.099095 0.000000
vn -0.019326 -0.098115 0.000000
vn -0.019326 -0.098115 0.000000
vn -0.025159 -0.096783 0.000000
vn -0.025159 -0.096783 0.000000
vn -0.030902 -0.095106 0.000000
vn -0.030902 -0.095106 0.000000
vn -0.036534 -0.093087 0.000000
vn -0.036534 -0.093087 0.000000
vn -0.042036 -0.090736 0.000000
vn -0.042036 -0.090736 0.000000
vn -0.047387 -0.088060 0.000000
vn -0.047387 -0.088060 0.000000
vn -0.052568 -0.085068 0.000000
vn -0.052568 -0.085068 0.000000
vn -0.057562 -0.081772 0.000000
vn -0.057562 -0.081772 0.000000
vn -0.062349 -0.078183 0.000000
vn -0.062349 -0.078183 0.000000
vn -0.066913 -0.074314 0.000000
vn -0.066913 -0.074314 0.000000
vn -0.071238 -0.070180 0.000000
vn -0.071238 -0.070180 0.000000
vn -0.075307 -0.065794 0.000000
vn -0.075307 -0.065794 0.000000
vn -0.079107 -0.061172 0.000000
vn -0.079107 -0.061172 0.000000
vn -0.082624 -0.056332 0.000000
vn -0.082624 -0.056332 0.000000
vn -0.085845 -0.051290 0.000000
vn -0.085845 -0.051290 0.000000
vn -0.088759 -0.046064 0.000000
vn -0.088759 -0.046064 0.000000
vn -0.091355 -0.040674 0.000000
vn -0.091355 -0.040674 0.000000
vn -0.093623 -0.035137 0.000000
vn -0.093623 -0.035137 0.000000
vn -0.095557 -0.029476 0.000000
vn -0.095557 -0.029476 0.000000
vn -0.097149 -0.023708 0.000000
vn -0.097149 -0.023708 0.000000
vn -0.098393 -0.017856 0.000000
vn -0.098393 -0.017856 0.000000
vn -0.099285 -0.011939 0.000000
vn -0.099285 -0.011939 0.000000
vn 0.000000 0.000000 -0.100000
vn 0.000000 0.000000 -0.100000
vn 0.000000 0.000000 -0.100000
vn 0.000000 0.000000 -0.100000
vn 0.000000 0.000000 -0.100000
vn 0.000000 0.000000 -0.100000
vn 0.000000 0.000000 -0.100000
vn 0.000000 0.000000 -0.100000
vn 0.000000 0.000000 -0.100000
vn 0.000000 0.000000 -0.100000
vn 0.000000 0.000000 -0.100000
vn 0.000000 0.000000 -0.100000
vn 0.000000 0.000000 -0.100000
vn 0.000000 0.000000 -0.100000
vn 0.000000 0.000000 -0.100000
vn 0.000000 0.000000 -0.100000
vn 0.000000 0.000000 -0.100000
vn 0.000000 0.000000 -0.100000
vn 0.000000 0.000000 -0.100000
vn 0.000000 0.000000 -0.100000
vn 0.000000 0.000000 -0.100000
vn 0.000000 0.000000 -0.100000
vn 0.000000 0.000000 -0.100000
vn 0.000000 0.000000 -0.100000
vn 0.000000 0.000000 -0.100000
vn 0.000000 0.000000 -0.100000
vn 0.000000 0.000000 -0.100000
vn 0.000000 0.000000 -0.100000
vn 0.000000 0.000000 -0.100000
vn 0.000000 0.000000 -0.100000
vn 0.000000 0.000000 -0.100000
vn 0.000000 0.000000 -0.100000
vn 0.000000 0.000000 -0.100000
vn 0.000000 0.000000 -0.100000
vn 0.000000 0.000000 -0.100000
vn 0.000000 0.000000 -0.100000
vn 0.000000 0.000000 -0.100000
vn 0.000000 0.000000 -0.100000
vn 0.000000 0.000000 -0.100000
vn 0.000000 0.000000 -0.100000
vn 0.000000 0.000000 -0.100000
vn 0.000000 0.000000 -0.100000
vn 0.000000 0.000000 -0.100000
vn 0.000000 0.000000 -0.100000
vn 0.000000 0.000000 -0.100000
vn 0.000000 0.000000 -0.100000
vn 0.000000 0.000000 -0.100000
vn 0.000000 0.000000 -0.100000
vn 0.000000 0.000000 -0.100000
vn 0.000000 0.000000 -0.100000
vn 0.000000 0.000000 -0.100000
vn 0.000000 0.000000 -0.100000
vn 0.000000 0.000000 -0.100000
vn 0.000000 0.000000 -0.100000
vn 0.000000 0.000000 -0.100000
vn 0.000000 0.000000 -0.100000
vn 0.000000 0.000000 -0.100000
vn 0.000000 0.000000 -0.100000
vn 0.000000 0.000000 -0.100000
vn 0.000000 0.000000 -0.100000
vn 0.000000 0.000000 -0.100000
vn 0.000000 0.000000 -0.100000
vn 0.000000 0.000000 -0.100000
vn 0.000000 0.000000 -0.100000
vn 0.000000 0.000000 -0.100000
vn 0.000000 0.000000 -0.100000
vn 0.000000 0.000000 -0.100000
vn 0.000000 0.000000 -0.100000
vn 0.000000 0.000000 -0.100000
vn 0.000000 0.000000 -0.100000
vn 0.000000 0.000000 -0.100000
vn 0.000000 0.000000 -0.100000
vn 0.000000 0.000000 -0.100000
vn 0.000000 0.000000 -0.100000
vn 0.000000 0.000000 -0.100000
vn 0.000000 0.000000 -0.100000
vn 0.000000 0.000000 -0.100000
vn 0.000000 0.000000 -0.100000
vn 0.000000 0.000000 -0.100000
vn 0.000000 0.000000 -0.100000
vn 0.000000 0.000000 -0.100000
vn 0.000000 0.000000 -0.100000
vn 0.000000 0.000000 -0.100000
vn 0.000000 0.000000 -0.100000
vn 0.000000 0.000000 -0.100000
vn 0.000000 0.000000 -0.100000
vn 0.000000 0.000000 -0.100000
vn 0.000000 0.000000 -0.100000
vn 0.000000 0.000000 -0.100000
vn 0.000000 0.000000 -0.100000
vn 0.000000 0.000000 -0.100000
vn 0.000000 0.000000 -0.100000
vn 0.000000 0.000000 -0.100000
vn 0.000000 0.000000 -0.100000
vn 0.000000 0.000000 -0.100000
vn 0.000000 0.000000 -0.100000
vn 0.000000 0.000000 -0.100000
vn 0.000000 0.000000 -0.100000
vn 0.000000 0.000000 -0.100000
vn 0.000000 0.000000 -0.100000
vn 0.000000 0.000000 -0.100000
vn 0.000000 0.000000 -0.100000
vn 0.000000 0.000000 -0.100000
vn 0.000000 0.000000 -0.100000
vn 0.000000 0.000000 -0.100000
vn 0.000000 0.000000 0.100000
vn 0.000000 0.000000 0.100000
vn 0.000000 0.000000 0.100000
vn 0.000000 0.000000 0.100000
vn 0.000000 0.000000 0.100000
vn 0.000000 0.000000 0.100000
vn 0.000000 0.000000 0.100000
vn 0.000000 0.000000 0.100000
vn 0.000000 0.000000 0.100000
vn 0.000000 0.000000 0.100000
vn 0.000000 0.000000 0.100000
vn 0.000000 0.000000 0.100000
vn 0.000000 0.000000 0.100000
vn 0.000000 0.000000 0.100000
vn 0.000000 0.000000 0.100000
vn 0.000000 0.000000 0.100000
vn 0.000000 0.000000 0.100000
vn 0.000000 0.000000 0.100000
vn 0.000000 0.000000 0.100000
vn 0.000000 0.000000 0.100000
vn 0.000000 0.000000 0.100000
vn 0.000000 0.000000 0.100000
vn 0.000000 0.000000 0.100000
vn 0.000000 0.000000 0.100000
vn 0.000000 0.000000 0.100000
vn 0.000000 0.000000 0.100000
vn 0.000000 0.000000 0.100000
vn 0.000000 0.000000 0.100000
vn 0.000000 0.000000 0.100000
vn 0.000000 0.000000 0.100000
vn 0.000000 0.000000 0.100000
vn 0.000000 0.000000 0.100000
vn 0.000000 0.000000 0.100000
vn 0.000000 0.000000 0.100000
vn 0.000000 0.000000 0.100000
vn 0.000000 0.000000 0.100000
vn 0.000000 0.000000 0.100000
vn 0.000000 0.000000 0.100000
vn 0.000000 0.000000 0.100000
vn 0.000000 0.000000 0.100000
vn 0.000000 0.000000 0.100000
vn 0.000000 0.000000 0.100000
vn 0.000000 0.000000 0.100000
vn 0.000000 0.000000 0.100000
vn 0.000000 0.000000 0.100000
vn 0.000000 0.000000 0.100000
vn 0.000000 0.000000 0.100000
vn 0.000000 0.000000 0.100000
vn 0.000000 0.000000 0.100000
vn 0.000000 0.000000 0.100000
vn 0.000000 0.000000 0.100000
vn 0.000000 0.000000 0.100000
vn 0.000000 0.000000 0.100000
vn 0.000000 0.000000 0.100000
vn 0.000000 0.000000 0.100000
vn 0.000000 0.000000 0.100000
vn 0.000000 0.000000 0.100000
vn 0.000000 0.000000 0.100000
vn 0.000000 0.000000 0.100000
vn 0.000000 0.000000 0.100000
vn 0.000000 0.000000 0.100000
vn 0.000000 0.000000 0.100000
vn 0.000000 0.000000 0.100000
vn 0.000000 0.000000 0.100000
vn 0.000000 0.000000 0.100000
vn 0.000000 0.000000 0.100000
vn 0.000000 0.000000 0.100000
vn 0.000000 0.000000 0.100000
vn 0.000000 0.000000 0.100000
vn 0.000000 0.000000 0.100000
vn 0.000000 0.000000 0.100000
vn 0.000000 0.000000 0.100000
vn 0.000000 0.000000 0.100000
vn 0.000000 0.000000 0.100000
vn 0.000000 0.000000 0.100000
vn 0.000000 0.000000 0.100000
vn 0.000000 0.000000 0.100000
vn 0.000000 0.000000 0.100000
vn 0.000000 0.000000 0.100000
vn 0.000000 0.000000 0.100000
vn 0.000000 0.000000 0.100000
vn 0.000000 0.000000 0.100000
vn 0.000000 0.000000 0.100000
vn 0.000000 0.000000 0.100000
vn 0.000000 0.000000 0.100000
vn 0.000000 0.000000 0.100000
vn 0.000000 0.000000 0.100000
vn 0.000000 0.000000 0.100000
vn 0.000000 0.000000 0.100000
vn 0.000000 0.000000 0.100000
vn 0.000000 0.000000 0.100000
vn 0.000000 0.000000 0.100000
vn 0.000000 0.000000 0.100000
vn 0.000000 0.000000 0.100000
vn 0.000000 0.000000 0.100000
vn 0.000000 0.000000 0.100000
vn 0.000000 0.000000 0.100000
vn 0.000000 0.000000 0.100000
vn 0.000000 0.000000 0.100000
vn 0.000000 0.000000 0.100000
vn 0.000000 0.000000 0.100000
vn 0.000000 0.000000 0.100000
vn 0.000000 0.000000 0.100000
vn 0.000000 0.000000 0.100000
vn 0.000000 0.000000 0.100000
usemtl Acero_-_Satinado
f 2/1/1 210/2/2 1/3/3
f 1/3/3 210/2/2 106/4/4
f 1/5/3 106/6/4 105/7/5
f 105/7/5 106/6/4 107/8/6
f 105/7/5 107/8/6 104/9/7
f 104/9/7 107/8/6 108/10/8
f 104/9/7 108/10/8 103/11/9
f 103/11/9 108/10/8 109/12/10
f 103/11/9 109/12/10 102/13/11
f 102/13/11 109/12/10 110/14/12
f 102/13/11 110/14/12 101/15/13
f 101/15/13 110/14/12 111/16/14
f 101/15/13 111/16/14 100/17/15
f 100/17/15 111/16/14 112/18/16
f 100/17/15 112/18/16 99/19/17
f 99/19/17 112/18/16 113/20/18
f 99/19/17 113/20/18 98/21/19
f 98/21/19 113/20/18 114/22/20
f 98/21/19 114/22/20 97/23/21
f 97/23/21 114/22/20 115/24/22
f 97/23/21 115/24/22 96/25/23
f 96/25/23 115/24/22 116/26/24
f 96/25/23 116/26/24 95/27/25
f 95/27/25 116/26/24 117/28/26
f 95/27/25 117/28/26 94/29/27
f 94/29/27 117/28/26 118/30/28
f 94/29/27 118/30/28 93/31/29
f 93/31/29 118/30/28 119/32/30
f 93/31/29 119/32/30 92/33/31
f 92/33/31 119/32/30 120/34/32
f 92/33/31 120/34/32 91/35/33
f 91/35/33 120/34/32 121/36/34
f 91/35/33 121/36/34 90/37/35
f 90/37/35 121/36/34 122/38/36
f 90/37/35 122/38/36 89/39/37
f 89/39/37 122/38/36 123/40/38
f 89/39/37 123/40/38 88/41/39
f 88/41/39 123/40/38 124/42/40
f 88/41/39 124/42/40 87/43/41
f 87/43/41 124/42/40 125/44/42
f 87/43/41 125/44/42 86/45/43
f 86/45/43 125/44/42 126/46/44
f 86/45/43 126/46/44 85/47/45
f 85/47/45 126/46/44 127/48/46
f 85/47/45 127/48/46 84/49/47
f 84/49/47 127/48/46 128/50/48
f 84/49/47 128/50/48 83/51/49
f 83/51/49 128/50/48 129/52/50
f 83/51/49 129/52/50 82/53/51
f 82/53/51 129/52/50 130/54/52
f 82/53/51 130/54/52 81/55/53
f 81/55/53 130/54/52 131/56/54
f 81/55/53 131/56/54 80/57/55
f 80/57/55 131/56/54 132/58/56
f 80/57/55 132/58/56 79/59/57
f 79/59/57 132/58/56 133/60/58
f 79/59/57 133/60/58 78/61/59
f 78/61/59 133/60/58 134/62/60
f 78/61/59 134/62/60 77/63/61
f 77/63/61 134/62/60 135/64/62
f 77/63/61 135/64/62 76/65/63
f 76/65/63 135/64/62 136/66/64
f 76/65/63 136/66/64 75/67/65
f 75/67/65 136/66/64 137/68/66
f 75/67/65 137/68/66 74/69/67
f 74/69/67 137/68/66 138/70/68
f 74/69/67 138/70/68 73/71/69
f 73/71/69 138/70/68 139/72/70
f 73/71/69 139/72/70 72/73/71
f 72/73/71 139/72/70 140/74/72
f 72/73/71 140/74/72 71/75/73
f 71/75/73 140/74/72 141/76/74
f 71/75/73 141/76/74 70/77/75
f 70/77/75 141/76/74 142/78/76
f 70/77/75 142/78/76 69/79/77
f 69/79/77 142/78/76 143/80/78
f 69/79/77 143/80/78 68/81/79
f 68/81/79 143/80/78 144/82/80
f 68/81/79 144/82/80 67/83/81
f 67/83/81 144/82/80 145/84/82
f 67/83/81 145/84/82 66/85/83
f 66/85/83 145/84/82 146/86/84
f 66/85/83 146/86/84 65/87/85
f 65/87/85 146/86/84 147/88/86
f 65/87/85 147/88/86 64/89/87
f 64/89/87 147/88/86 148/90/88
f 64/89/87 148/90/88 63/91/89
f 63/91/89 148/90/88 149/92/90
f 63/91/89 149/92/90 62/93/91
f 62/93/91 149/92/90 150/94/92
f 62/93/91 150/94/92 61/95/93
f 61/95/93 150/94/92 151/96/94
f 61/95/93 151/96/94 60/97/95
f 60/97/95 151/96/94 152/98/96
f 60/97/95 152/98/96 59/99/97
f 59/99/97 152/98/96 153/100/98
f 59/99/97 153/100/98 58/101/99
f 58/101/99 153/100/98 154/102/100
f 58/101/99 154/102/100 57/103/101
f 57/103/101 154/102/100 155/104/102
f 57/103/101 155/104/102 56/105/103
f 56/105/103 155/104/102 156/106/104
f 56/105/103 156/106/104 55/107/105
f 55/107/105 156/106/104 157/108/106
f 55/107/105 157/108/106 54/109/107
f 54/109/107 157/108/106 158/110/108
f 54/109/107 158/110/108 53/111/109
f 53/111/109 158/110/108 159/112/110
f 53/111/109 159/112/110 52/113/111
f 52/113/111 159/112/110 160/114/112
f 52/113/111 160/114/112 51/115/113
f 51/115/113 160/114/112 161/116/114
f 51/115/113 161/116/114 50/117/115
f 50/117/115 161/116/114 162/118/116
f 50/117/115 162/118/116 49/119/117
f 49/119/117 162/118/116 163/120/118
f 49/119/117 163/120/118 48/121/119
f 48/121/119 163/120/118 164/122/120
f 48/121/119 164/122/120 47/123/121
f 47/123/121 164/122/120 165/124/122
f 47/123/121 165/124/122 46/125/123
f 46/125/123 165/124/122 166/126/124
f 46/125/123 166/126/124 45/127/125
f 45/127/125 166/126/124 167/128/126
f 45/127/125 167/128/126 44/129/127
f 44/129/127 167/128/126 168/130/128
f 44/129/127 168/130/128 43/131/129
f 43/131/129 168/130/128 169/132/130
f 43/131/129 169/132/130 42/133/131
f 42/133/131 169/132/130 170/134/132
f 42/133/131 170/134/132 41/135/133
f 41/135/133 170/134/132 171/136/134
f 41/135/133 171/136/134 40/137/135
f 40/137/135 171/136/134 172/138/136
f 40/137/135 172/138/136 39/139/137
f 39/139/137 172/138/136 173/140/138
f 39/139/137 173/140/138 38/141/139
f 38/141/139 173/140/138 174/142/140
f 38/141/139 174/142/140 37/143/141
f 37/143/141 174/142/140 175/144/142
f 37/143/141 175/144/142 36/145/143
f 36/145/143 175/144/142 176/146/144
f 36/145/143 176/146/144 35/147/145
f 35/147/145 176/146/144 177/148/146
f 35/147/145 177/148/146 34/149/147
f 34/149/147 177/148/146 178/150/148
f 34/149/147 178/150/148 33/151/149
f 33/151/149 178/150/148 179/152/150
f 33/151/149 179/152/150 32/153/151
f 32/153/151 179/152/150 180/154/152
f 32/153/151 180/154/152 31/155/153
f 31/155/153 180/154/152 181/156/154
f 31/155/153 181/156/154 30/157/155
f 30/157/155 181/156/154 182/158/156
f 30/157/155 182/158/156 29/159/157
f 29/159/157 182/158/156 183/160/158
f 29/159/157 183/160/158 28/161/159
f 28/161/159 183/160/158 184/162/160
f 28/161/159 184/162/160 27/163/161
f 27/163/161 184/162/160 185/164/162
f 27/163/161 185/164/162 26/165/163
f 26/165/163 185/164/162 186/166/164
f 26/165/163 186/166/164 25/167/165
f 25/167/165 186/166/164 187/168/166
f 25/167/165 187/168/166 24/169/167
f 24/169/167 187/168/166 188/170/168
f 24/169/167 188/170/168 23/171/169
f 23/171/169 188/170/168 189/172/170
f 23/171/169 189/172/170 22/173/171
f 22/173/171 189/172/170 190/174/172
f 22/173/171 190/174/172 21/175/173
f 21/175/173 190/174/172 191/176/174
f 21/175/173 191/176/174 20/177/175
f 20/177/175 191/176/174 192/178/176
f 20/177/175 192/178/176 19/179/177
f 19/179/177 192/178/176 193/180/178
f 19/179/177 193/180/178 18/181/179
f 18/181/179 193/180/178 194/182/180
f 18/181/179 194/182/180 17/183/181
f 17/183/181 194/182/180 195/184/182
f 17/183/181 195/184/182 16/185/183
f 16/185/183 195/184/182 196/186/184
f 16/185/183 196/186/184 15/187/185
f 15/187/185 196/186/184 197/188/186
f 15/187/185 197/188/186 14/189/187
f 14/189/187 197/188/186 198/190/188
f 14/189/187 198/190/188 13/191/189
f 13/191/189 198/190/188 199/192/190
f 13/191/189 199/192/190 12/193/191
f 12/193/191 199/192/190 200/194/192
f 12/193/191 200/194/192 11/195/193
f 11/195/193 200/194/192 201/196/194
f 11/195/193 201/196/194 10/197/195
f 10/197/195 201/196/194 202/198/196
f 10/197/195 202/198/196 9/199/197
f 9/199/197 202/198/196 203/200/198
f 9/199/197 203/200/198 8/201/199
f 8/201/199 203/200/198 204/202/200
f 8/201/199 204/202/200 7/203/201
f 7/203/201 204/202/200 205/204/202
f 7/203/201 205/204/202 6/205/203
f 6/205/203 205/204/202 206/206/204
f 6/205/203 206/206/204 5/207/205
f 5/207/205 206/206/204 207/208/206
f 5/207/205 207/208/206 4/209/207
f 4/209/207 207/208/206 208/210/208
f 4/209/207 208/210/208 3/211/209
f 3/211/209 208/210/208 209/212/210
f 3/211/209 209/212/210 2/1/1
f 2/1/1 209/212/210 210/2/2
f 105/213/211 54/214/212 1/215/213
f 1/215/213 54/214/212 53/216/214
f 1/215/213 53/216/214 2/217/215
f 2/217/215 53/216/214 52/218/216
f 2/217/215 52/218/216 3/219/217
f 3/219/217 52/218/216 51/220/218
f 3/219/217 51/220/218 4/221/219
f 4/221/219 51/220/218 50/222/220
f 4/221/219 50/222/220 5/223/221
f 5/223/221 50/222/220 49/224/222
f 5/223/221 49/224/222 6/225/223
f 6/225/223 49/224/222 48/226/224
f 6/225/223 48/226/224 7/227/225
f 7/227/225 48/226/224 47/228/226
f 7/227/225 47/228/226 8/229/227
f 8/229/227 47/228/226 46/230/228
f 8/229/227 46/230/228 9/231/229
f 9/231/229 46/230/228 45/232/230
f 9/231/229 45/232/230 10/233/231
f 10/233/231 45/232/230 44/234/232
f 10/233/231 44/234/232 11/235/233
f 11/235/233 44/234/232 43/236/234
f 11/235/233 43/236/234 12/237/235
f 12/237/235 43/236/234 42/238/236
f 12/237/235 42/238/236 13/239/237
f 13/239/237 42/238/236 41/240/238
f 13/239/237 41/240/238 14/241/239
f 14/241/239 41/240/238 40/242/240
f 14/241/239 40/242/240 15/243/241
f 15/243/241 40/242/240 39/244/242
f 15/243/241 39/244/242 16/245/243
f 16/245/243 39/244/242 38/246/244
f 16/245/243 38/246/244 17/247/245
f 17/247/245 38/246/244 37/248/246
f 17/247/245 37/248/246 18/249/247
f 18/249/247 37/248/246 36/250/248
f 18/249/247 36/250/248 19/251/249
f 19/251/249 36/250/248 35/252/250
f 19/251/249 35/252/250 20/253/251
f 20/253/251 35/252/250 34/254/252
f 20/253/251 34/254/252 21/255/253
f 21/255/253 34/254/252 33/256/254
f 21/255/253 33/256/254 22/257/255
f 22/257/255 33/256/254 32/258/256
f 22/257/255 32/258/256 23/259/257
f 23/259/257 32/258/256 31/260/258
f 23/259/257 31/260/258 24/261/259
f 24/261/259 31/260/258 30/262/260
f 24/261/259 30/262/260 25/263/261
f 25/263/261 30/262/260 29/264/262
f 25/263/261 29/264/262 26/265/263
f 26/265/263 29/264/262 28/266/264
f 26/265/263 28/266/264 27/267/265
f 54/214/212 105/213/211 55/268/266
f 55/268/266 105/213/211 104/269/267
f 55/268/266 104/269/267 56/270/268
f 56/270/268 104/269/267 103/271/269
f 56/270/268 103/271/269 57/272/270
f 57/272/270 103/271/269 102/273/271
f 57/272/270 102/273/271 58/274/272
f 58/274/272 102/273/271 101/275/273
f 58/274/272 101/275/273 100/276/274
f 100/276/274 99/277/275 58/274/272
f 58/274/272 99/277/275 98/278/276
f 58/274/272 98/278/276 97/279/277
f 58/274/272 97/279/277 59/280/278
f 59/280/278 97/279/277 96/281/279
f 59/280/278 96/281/279 95/282/280
f 95/282/280 94/283/281 59/280/278
f 59/280/278 94/283/281 93/284/282
f 59/280/278 93/284/282 92/285/283
f 92/285/283 91/286/284 59/280/278
f 59/280/278 91/286/284 90/287/285
f 59/280/278 90/287/285 89/288/286
f 89/288/286 88/289/287 59/280/278
f 59/280/278 88/289/287 87/290/288
f 59/280/278 87/290/288 86/291/289
f 86/291/289 85/292/290 59/280/278
f 59/280/278 85/292/290 84/293/291
f 59/280/278 84/293/291 83/294/292
f 83/294/292 82/295/293 59/280/278
f 59/280/278 82/295/293 81/296/294
f 59/280/278 81/296/294 80/297/295
f 80/297/295 79/298/296 59/280/278
f 59/280/278 79/298/296 78/299/297
f 59/280/278 78/299/297 77/300/298
f 77/300/298 76/301/299 59/280/278
f 59/280/278 76/301/299 75/302/300
f 59/280/278 75/302/300 74/303/301
f 74/303/301 73/304/302 59/280/278
f 59/280/278 73/304/302 72/305/303
f 59/280/278 72/305/303 71/306/304
f 71/306/304 70/307/305 59/280/278
f 59/280/278 70/307/305 69/308/306
f 59/280/278 69/308/306 68/309/307
f 68/309/307 67/310/308 59/280/278
f 59/280/278 67/310/308 66/311/309
f 59/280/278 66/311/309 65/312/310
f 65/312/310 64/313/311 59/280/278
f 59/280/278 64/313/311 63/314/312
f 59/280/278 63/314/312 62/315/313
f 62/315/313 61/316/314 59/280/278
f 59/280/278 61/316/314 60/317/315
f 210/318/316 159/319/317 106/320/318
f 106/320/318 159/319/317 158/321/319
f 106/320/318 158/321/319 107/322/320
f 107/322/320 158/321/319 157/323/321
f 107/322/320 157/323/321 108/324/322
f 108/324/322 157/323/321 156/325/323
f 108/324/322 156/325/323 109/326/324
f 109/326/324 156/325/323 155/327/325
f 109/326/324 155/327/325 110/328/326
f 110/328/326 155/327/325 154/329/327
f 110/328/326 154/329/327 111/330/328
f 111/330/328 154/329/327 112/331/329
f 112/331/329 154/329/327 113/332/330
f 113/332/330 154/329/327 114/333/331
f 114/333/331 154/329/327 115/334/332
f 115/334/332 154/329/327 153/335/333
f 115/334/332 153/335/333 116/336/334
f 116/336/334 153/335/333 117/337/335
f 117/337/335 153/335/333 118/338/336
f 118/338/336 153/335/333 119/339/337
f 119/339/337 153/335/333 120/340/338
f 120/340/338 153/335/333 121/341/339
f 121/341/339 153/335/333 122/342/340
f 122/342/340 153/335/333 123/343/341
f 123/343/341 153/335/333 124/344/342
f 124/344/342 153/335/333 125/345/343
f 125/345/343 153/335/333 126/346/344
f 126/346/344 153/335/333 127/347/345
f 127/347/345 153/335/333 128/348/346
f 128/348/346 153/335/333 129/349/347
f 129/349/347 153/335/333 130/350/348
f 130/350/348 153/335/333 131/351/349
f 131/351/349 153/335/333 132/352/350
f 132/352/350 153/335/333 133/353/351
f 133/353/351 153/335/333 134/354/352
f 134/354/352 153/335/333 135/355/353
f 135/355/353 153/335/333 136/356/354
f 136/356/354 153/335/333 137/357/355
f 137/357/355 153/335/333 138/358/356
f 138/358/356 153/335/333 139/359/357
f 139/359/357 153/335/333 140/360/358
f 140/360/358 153/335/333 141/361/359
f 141/361/359 153/335/333 142/362/360
f 142/362/360 153/335/333 143/363/361
f 143/363/361 153/335/333 144/364/362
f 144/364/362 153/335/333 145/365/363
f 145/365/363 153/335/333 146/366/364
f 146/366/364 153/335/333 147/367/365
f 147/367/365 153/335/333 148/368/366
f 148/368/366 153/335/333 149/369/367
f 149/369/367 153/335/333 150/370/368
f 150/370/368 153/335/333 151/371/369
f 151/371/369 153/335/333 152/372/370
f 159/319/317 210/318/316 160/373/371
f 160/373/371 210/318/316 209/374/372
f 160/373/371 209/374/372 161/375/373
f 161/375/373 209/374/372 208/376/374
f 161/375/373 208/376/374 162/377/375
f 162/377/375 208/376/374 207/378/376
f 162/377/375 207/378/376 163/379/377
f 163/379/377 207/378/376 206/380/378
f 163/379/377 206/380/378 164/381/379
f 164/381/379 206/380/378 205/382/380
f 164/381/379 205/382/380 165/383/381
f 165/383/381 205/382/380 204/384/382
f 165/383/381 204/384/382 166/385/383
f 166/385/383 204/384/382 203/386/384
f 166/385/383 203/386/384 167/387/385
f 167/387/385 203/386/384 202/388/386
f 167/387/385 202/388/386 168/389/387
f 168/389/387 202/388/386 201/390/388
f 168/389/387 201/390/388 169/391/389
f 169/391/389 201/390/388 200/392/390
f 169/391/389 200/392/390 170/393/391
f 170/393/391 200/392/390 199/394/392
f 170/393/391 199/394/392 171/395/393
f 171/395/393 199/394/392 198/396/394
f 171/395/393 198/396/394 172/397/395
f 172/397/395 198/396/394 197/398/396
f 172/397/395 197/398/396 173/399/397
f 173/399/397 197/398/396 196/400/398
f 173/399/397 196/400/398 174/401/399
f 174/401/399 196/400/398 195/402/400
f 174/401/399 195/402/400 175/403/401
f 175/403/401 195/402/400 194/404/402
f 175/403/401 194/404/402 176/405/403
f 176/405/403 194/404/402 193/406/404
f 176/405/403 193/406/404 177/407/405
f 177/407/405 193/406/404 192/408/406
f 177/407/405 192/408/406 178/409/407
f 178/409/407 192/408/406 191/410/408
f 178/409/407 191/410/408 179/411/409
f 179/411/409 191/410/408 190/412/410
f 179/411/409 190/412/410 180/413/411
f 180/413/411 190/412/410 189/414/412
f 180/413/411 189/414/412 181/415/413
f 181/415/413 189/414/412 188/416/414
f 181/415/413 188/416/414 182/417/415
f 182/417/415 188/416/414 187/418/416
f 182/417/415 187/418/416 183/419/417
f 183/419/417 187/418/416 186/420/418
f 183/419/417 186/420/418 184/421/419
f 184/421/419 186/420/418 185/422/420
# 210 vertices
# 422 texture params
# 420 normals
# 416 facets

# 1 groups
